<?xml version="1.0" encoding="UTF-8" standalone="no"?>
<!-- Created with Inkscape (http://www.inkscape.org/) -->

<svg
   width="200mm"
   height="200mm"
   viewBox="0 0 200 199.99999"
   version="1.1"
   id="svg654573"
   inkscape:version="1.1 (c4e8f9ed74, 2021-05-24)"
   sodipodi:docname="cycling_woman_dbg.svg"
   inkscape:export-filename="/home/mike/OneDrive/uni/webdesign/project/cycling_woman_dbg.png"
   inkscape:export-xdpi="96"
   inkscape:export-ydpi="96"
   xmlns:inkscape="http://www.inkscape.org/namespaces/inkscape"
   xmlns:sodipodi="http://sodipodi.sourceforge.net/DTD/sodipodi-0.dtd"
   xmlns="http://www.w3.org/2000/svg"
   xmlns:svg="http://www.w3.org/2000/svg">
  <sodipodi:namedview
     id="namedview654575"
     pagecolor="#ffffff"
     bordercolor="#666666"
     borderopacity="1.0"
     inkscape:pageshadow="2"
     inkscape:pageopacity="0.0"
     inkscape:pagecheckerboard="0"
     inkscape:document-units="mm"
     showgrid="false"
     inkscape:zoom="0.77415123"
     inkscape:cx="189.88538"
     inkscape:cy="355.22775"
     inkscape:window-width="1920"
     inkscape:window-height="1029"
     inkscape:window-x="0"
     inkscape:window-y="22"
     inkscape:window-maximized="1"
     inkscape:current-layer="g665971" />
  <defs
     id="defs654570">
    <clipPath
       clipPathUnits="userSpaceOnUse"
       id="clipPath122944">
      <path
         d="M 269.814,687.434 H 287.3 v -13.667 h -17.486 z"
         id="path122942" />
    </clipPath>
    <clipPath
       clipPathUnits="userSpaceOnUse"
       id="clipPath122960">
      <path
         d="m 319.388,690.292 h 12.432 v -12.32 h -12.432 z"
         id="path122958" />
    </clipPath>
    <clipPath
       clipPathUnits="userSpaceOnUse"
       id="clipPath122976">
      <path
         d="m 548.34,690.292 h 12.431 v -12.32 H 548.34 Z"
         id="path122974" />
    </clipPath>
    <clipPath
       clipPathUnits="userSpaceOnUse"
       id="clipPath122992">
      <path
         d="M 587.314,687.434 H 604.8 v -13.667 h -17.486 z"
         id="path122990" />
    </clipPath>
    <clipPath
       clipPathUnits="userSpaceOnUse"
       id="clipPath123010">
      <path
         d="m 217.659,691.937 h 434.96 v -7.765 h -434.96 z"
         id="path123008" />
    </clipPath>
    <clipPath
       clipPathUnits="userSpaceOnUse"
       id="clipPath123034">
      <path
         d="M 524.111,897.079 H 665.729 V 794.518 H 524.111 Z"
         id="path123032" />
    </clipPath>
    <clipPath
       clipPathUnits="userSpaceOnUse"
       id="clipPath123242">
      <path
         d="m 676.115,789.214 h 78.534 v -64.541 h -78.534 z"
         id="path123240" />
    </clipPath>
    <clipPath
       clipPathUnits="userSpaceOnUse"
       id="clipPath123282">
      <path
         d="m 655.807,930.599 h 0.411 v -0.9 h -0.411 z"
         id="path123280" />
    </clipPath>
    <clipPath
       clipPathUnits="userSpaceOnUse"
       id="clipPath123330">
      <path
         d="m 644.771,946.752 h 13.899 v -8.238 h -13.899 z"
         id="path123328" />
    </clipPath>
    <clipPath
       clipPathUnits="userSpaceOnUse"
       id="clipPath123358">
      <path
         d="m 622.574,949.319 h 11.791 v -12.077 h -11.791 z"
         id="path123356" />
    </clipPath>
    <clipPath
       clipPathUnits="userSpaceOnUse"
       id="clipPath123374">
      <path
         d="M 624.452,949.319 H 638.9 V 934.77 h -14.448 z"
         id="path123372" />
    </clipPath>
    <clipPath
       clipPathUnits="userSpaceOnUse"
       id="clipPath123390">
      <path
         d="m 643.106,949.319 h 12.285 v -12.711 h -12.285 z"
         id="path123388" />
    </clipPath>
    <clipPath
       clipPathUnits="userSpaceOnUse"
       id="clipPath123406">
      <path
         d="m 645.064,949.319 h 15.05 v -15.31 h -15.05 z"
         id="path123404" />
    </clipPath>
    <clipPath
       clipPathUnits="userSpaceOnUse"
       id="clipPath123462">
      <path
         d="m 636.165,939.708 h 5.197 v -6.262 h -5.197 z"
         id="path123460" />
    </clipPath>
    <clipPath
       clipPathUnits="userSpaceOnUse"
       id="clipPath123482">
      <path
         d="m 636.498,941.038 h 4.856 v -5.736 h -4.856 z"
         id="path123480" />
    </clipPath>
    <clipPath
       clipPathUnits="userSpaceOnUse"
       id="clipPath123498">
      <path
         d="m 636.861,938.732 h 1.186 v -0.878 h -1.186 z"
         id="path123496" />
    </clipPath>
    <clipPath
       clipPathUnits="userSpaceOnUse"
       id="clipPath123578">
      <path
         d="m 692.366,886.471 h 60.713 v -93.983 h -60.713 z"
         id="path123576" />
    </clipPath>
    <clipPath
       clipPathUnits="userSpaceOnUse"
       id="clipPath122944-1">
      <path
         d="M 269.814,687.434 H 287.3 v -13.667 h -17.486 z"
         id="path122942-7" />
    </clipPath>
    <clipPath
       clipPathUnits="userSpaceOnUse"
       id="clipPath122960-5">
      <path
         d="m 319.388,690.292 h 12.432 v -12.32 h -12.432 z"
         id="path122958-1" />
    </clipPath>
  </defs>
  <g
     inkscape:label="Layer 1"
     inkscape:groupmode="layer"
     id="layer1"
     transform="translate(124.48194,-121.28209)">
    <g
       id="g666229">
      <g
         id="g665971"
         transform="matrix(1.0970688,0,0,1.0970688,4.6036507,-17.388009)">
        <g
           id="g497343"
           transform="matrix(0.21820024,0,0,-0.21820024,-166.7022,-211.25871)" />
        <g
           id="g2093">
          <rect
             style="fill:#000000;stroke-width:0.264583"
             id="rect664559"
             width="200"
             height="200"
             x="-124.48194"
             y="121.28209"
             transform="matrix(0.91151987,0,0,0.91151987,-4.1963197,15.849516)" />
          <path
             d="m 306.38386,-1883.7396 -45.681,182.452 c 0,0 -71.92,-111.3 45.681,-182.452"
             style="fill:#5640ed;fill-opacity:1;fill-rule:nonzero;stroke:none"
             id="path122802"
             transform="matrix(0.21820024,0,0,-0.21820024,-166.7022,-211.2587)" />
          <path
             d="m 306.38386,-1883.7396 -45.681,182.452 c 0,0 115.882,-64.28 45.681,-182.452"
             style="fill:#7066f7;fill-opacity:1;fill-rule:nonzero;stroke:none"
             id="path122806"
             transform="matrix(0.21820024,0,0,-0.21820024,-166.7022,-211.2587)" />
          <path
             d="m 441.77346,-2063.7784 121.644,72.578 c 0,0 -95.884,27.682 -121.644,-72.578"
             style="fill:#7066f7;fill-opacity:1;fill-rule:nonzero;stroke:none"
             id="path122810"
             transform="matrix(0.21820024,0,0,-0.21820024,-166.7022,-211.2587)" />
          <path
             d="m 441.77346,-2063.7784 121.644,72.578 c 0,0 -21.178,-97.525 -121.644,-72.578"
             style="fill:#5640ed;fill-opacity:1;fill-rule:nonzero;stroke:none"
             id="path122814"
             transform="matrix(0.21820024,0,0,-0.21820024,-166.7022,-211.2587)" />
          <path
             d="m 479.12116,-1832.1928 -28.182,10.221 39.976,9.826 c 4.607,9.672 7.68,20.439 7.19,33.713 -1.287,34.686 -3.62,53.79 10.442,81.793 14.07,28.003 11.867,56.122 -22.449,74.63 -37.318,11.29 -58.813,-6.972 -68.763,-36.686 -9.942,-29.719 -25.131,-41.532 -50.643,-65.075 -25.512,-23.543 -21.758,-52.304 -31.959,-78.285 -10.203,-25.984 -50.214,-33.521 -58.204,-94.879 -7.995,-61.358 61.933,-79.983 61.933,-79.983 0,0 62.514,-36.467 100.395,12.461 37.882,48.922 15.02,82.613 26.253,108.166 3.789,8.618 8.92,16.328 14.011,24.098"
             style="fill:#7066f7;fill-opacity:1;fill-rule:nonzero;stroke:none"
             id="path122818"
             transform="matrix(0.21820024,0,0,-0.21820024,-166.7022,-211.2587)" />
          <path
             d="m 479.12116,-1834.6179 -28.182,10.221 39.976,9.826 c 4.607,9.672 7.68,20.439 7.19,33.713 -1.287,34.686 -3.62,53.79 10.442,81.793 13.233,26.325 12.066,52.757 -16.637,71.202 -20.533,-8.572 -28.565,-28.668 -38.991,-50.172 -12.157,-24.867 -36.108,-36.665 -45.171,-62.819 -8.102,-23.836 -1.583,-47.4 -3.951,-72.711 -3.463,-25.761 -27.475,-42.071 -34.669,-68.096 -12.889,-47.795 31.695,-80.643 74.804,-78.196 30.622,45.147 10.495,76.833 21.178,101.141 3.789,8.618 8.92,16.328 14.011,24.098"
             style="fill:#5640ed;fill-opacity:1;fill-rule:nonzero;stroke:none"
             id="path122822"
             transform="matrix(0.21820024,0,0,-0.21820024,-166.7022,-211.2587)" />
          <path
             d="m 472.55086,-1651.2011 c -51.304,-123.335 -102.611,-246.671 -153.915,-370.014 -1.347,-3.23 3.914,-4.632 5.239,-1.441 41.619,100.045 83.231,200.088 124.849,300.131 9.69,23.295 19.376,46.588 29.066,69.882 1.346,3.236 -3.913,4.634 -5.239,1.442 -41.616,-100.042 -83.23,-200.087 -124.849,-300.129 -9.689,-23.297 -19.377,-46.586 -29.066,-69.885 1.747,-0.478 3.493,-0.961 5.239,-1.441 51.305,123.34 102.611,246.675 153.915,370.013 1.346,3.236 -3.913,4.634 -5.239,1.442"
             style="fill:#f5ddca;fill-opacity:1;fill-rule:nonzero;stroke:none"
             id="path122826"
             transform="matrix(0.21820024,0,0,-0.21820024,-166.7022,-211.2587)" />
          <path
             d="m 376.10696,-1898.056 c 24.442,10.076 48.889,20.162 73.33,30.246 3.194,1.316 1.796,6.577 -1.444,5.238 -24.444,-10.083 -48.887,-20.166 -73.329,-30.244 -3.195,-1.318 -1.799,-6.578 1.443,-5.24"
             style="fill:#f5ddca;fill-opacity:1;fill-rule:nonzero;stroke:none"
             id="path122830"
             transform="matrix(0.21820024,0,0,-0.21820024,-166.7022,-211.2587)" />
          <path
             d="m 371.06696,-1788.4193 c 7.378,-17.877 14.746,-35.756 22.126,-53.631 1.314,-3.196 6.575,-1.797 5.239,1.442 -7.376,17.878 -14.746,35.757 -22.124,53.637 -1.317,3.189 -6.577,1.794 -5.241,-1.448"
             style="fill:#f5ddca;fill-opacity:1;fill-rule:nonzero;stroke:none"
             id="path122834"
             transform="matrix(0.21820024,0,0,-0.21820024,-166.7022,-211.2587)" />
          <path
             d="m 420.75546,-1788.1732 c 15.929,6.569 31.864,13.145 47.796,19.711 3.191,1.316 1.795,6.578 -1.445,5.242 -15.934,-6.566 -31.866,-13.142 -47.794,-19.712 -3.194,-1.317 -1.795,-6.579 1.443,-5.241"
             style="fill:#f5ddca;fill-opacity:1;fill-rule:nonzero;stroke:none"
             id="path122838"
             transform="matrix(0.21820024,0,0,-0.21820024,-166.7022,-211.2587)" />
          <path
             d="m 431.46836,-1666.3886 c 5.618,-13.618 11.237,-27.24 16.854,-40.86 1.313,-3.194 6.576,-1.793 5.236,1.448 -5.615,13.619 -11.232,27.237 -16.85,40.86 -1.317,3.191 -6.577,1.795 -5.24,-1.448"
             style="fill:#f5ddca;fill-opacity:1;fill-rule:nonzero;stroke:none"
             id="path122842"
             transform="matrix(0.21820024,0,0,-0.21820024,-166.7022,-211.2587)" />
          <path
             d="m 673.21246,-2114.1241 -45.679,182.452 c 0,0 -71.923,-111.3 45.679,-182.452"
             style="fill:#5640ed;fill-opacity:1;fill-rule:nonzero;stroke:none"
             id="path122854"
             transform="matrix(0.21820024,0,0,-0.21820024,-166.7022,-211.2587)" />
          <path
             d="m 673.21246,-2114.1241 -45.679,182.452 c 0,0 115.88,-64.28 45.679,-182.452"
             style="fill:#7066f7;fill-opacity:1;fill-rule:nonzero;stroke:none"
             id="path122858"
             transform="matrix(0.21820024,0,0,-0.21820024,-166.7022,-211.2587)" />
          <path
             d="m 808.60306,-2063.7784 121.643,72.578 c 0,0 -95.883,27.682 -121.643,-72.578"
             style="fill:#7066f7;fill-opacity:1;fill-rule:nonzero;stroke:none"
             id="path122862"
             transform="matrix(0.21820024,0,0,-0.21820024,-166.7022,-211.2587)" />
          <path
             d="m 808.60306,-2063.7784 121.643,72.578 c 0,0 -21.178,-97.525 -121.643,-72.578"
             style="fill:#5640ed;fill-opacity:1;fill-rule:nonzero;stroke:none"
             id="path122866"
             transform="matrix(0.21820024,0,0,-0.21820024,-166.7022,-211.2587)" />
          <path
             d="m 1004.9849,-1794.9044 -28.18178,10.221 39.97578,9.826 c 4.607,9.672 7.68,20.439 7.19,33.713 -1.287,34.686 -3.62,53.79 10.442,81.793 14.07,28.003 11.867,56.122 -22.449,74.63 -37.31778,11.29 -58.8127,-6.972 -68.7627,-36.686 -9.94204,-29.719 -25.13104,-41.532 -50.64304,-65.075 -25.512,-23.543 -21.758,-52.304 -31.959,-78.285 -10.203,-25.984 -50.214,-33.521 -58.204,-94.879 -7.995,-61.358 61.933,-79.983 61.933,-79.983 0,0 62.514,-36.467 100.39496,12.461 37.88178,48.922 15.02,82.613 26.25293,108.166 3.78894,8.618 8.91988,16.328 14.01085,24.098"
             style="fill:#7066f7;fill-opacity:1;fill-rule:nonzero;stroke:none"
             id="path122818-1"
             transform="matrix(0.21820024,0,0,-0.21820024,-166.7022,-211.2587)" />
          <path
             d="m 1009.4061,-1797.3295 -28.18184,10.221 39.97584,9.826 c 4.607,9.672 7.68,20.439 7.19,33.713 -1.287,34.686 -3.62,53.79 10.442,81.793 13.233,26.325 12.066,52.757 -16.637,71.202 -20.533,-8.572 -28.56491,-28.668 -38.99084,-50.172 -12.157,-24.867 -36.10792,-36.665 -45.17096,-62.819 -8.102,-23.836 -1.583,-47.4 -3.951,-72.711 -3.463,-25.761 -27.475,-42.071 -34.669,-68.096 -12.889,-47.795 31.695,-80.643 74.80396,-78.196 30.62184,45.147 10.495,76.833 21.17793,101.141 3.78894,8.618 8.91991,16.328 14.01091,24.098"
             style="fill:#5640ed;fill-opacity:1;fill-rule:nonzero;stroke:none"
             id="path122822-7"
             transform="matrix(0.21820024,0,0,-0.21820024,-166.7022,-211.2587)" />
          <g
             id="g1580"
             transform="matrix(0.21820024,0,0,-0.21820024,-169.11393,-214.15277)">
            <path
               d="m 1016.0994,-1613.9127 c -51.30394,-123.335 -102.61098,-246.671 -153.91498,-370.014 -1.347,-3.23 3.914,-4.632 5.239,-1.441 41.619,100.045 83.231,200.088 124.84896,300.131 9.69002,23.295 19.37602,46.588 29.06602,69.882 1.346,3.236 -3.913,4.634 -5.239,1.442 -41.61594,-100.042 -83.22998,-200.087 -124.84898,-300.129 -9.689,-23.297 -19.377,-46.586 -29.066,-69.885 1.747,-0.478 3.493,-0.961 5.239,-1.441 51.305,123.34 102.61104,246.675 153.91498,370.013 1.346,3.236 -3.913,4.634 -5.239,1.442"
               style="fill:#f5ddca;fill-opacity:1;fill-rule:nonzero;stroke:none"
               id="path122826-1" />
            <path
               d="m 919.65552,-1860.7676 c 24.442,10.076 48.88904,20.162 73.32996,30.246 3.194,1.316 1.796,6.577 -1.444,5.238 -24.44392,-10.083 -48.88696,-20.166 -73.32896,-30.244 -3.195,-1.318 -1.799,-6.578 1.443,-5.24"
               style="fill:#f5ddca;fill-opacity:1;fill-rule:nonzero;stroke:none"
               id="path122830-1" />
            <path
               d="m 914.61552,-1751.1309 c 7.378,-17.877 14.746,-35.756 22.126,-53.631 1.314,-3.196 6.575,-1.797 5.239,1.442 -7.376,17.878 -14.746,35.757 -22.124,53.637 -1.317,3.189 -6.577,1.794 -5.241,-1.448"
               style="fill:#f5ddca;fill-opacity:1;fill-rule:nonzero;stroke:none"
               id="path122834-1" />
            <path
               d="m 964.30406,-1750.8848 c 15.92892,6.569 31.86392,13.145 47.79594,19.711 3.191,1.316 1.795,6.578 -1.445,5.242 -15.93402,-6.566 -31.86602,-13.142 -47.79394,-19.712 -3.194,-1.317 -1.795,-6.579 1.443,-5.241"
               style="fill:#f5ddca;fill-opacity:1;fill-rule:nonzero;stroke:none"
               id="path122838-7" />
            <path
               d="m 975.01696,-1629.1002 c 5.61792,-13.618 11.23692,-27.24 16.85392,-40.86 1.313,-3.194 6.576,-1.793 5.236,1.448 -5.615,13.619 -11.232,27.237 -16.85,40.86 -1.317,3.191 -6.57692,1.795 -5.23992,-1.448"
               style="fill:#f5ddca;fill-opacity:1;fill-rule:nonzero;stroke:none"
               id="path122842-0" />
          </g>
          <path
             d="m 817.75512,-1869.0801 c 3.466,1.762 9.41,5.203 14.975,10.43 8.533,8.015 12.932,17.193 12.932,17.193 0,0 -9.435,-3.818 -17.968,-11.834 -6.517,-6.122 -10.621,-12.919 -12.197,-15.789 z"
             style="fill:#66b48c;fill-opacity:1;fill-rule:nonzero;stroke:none"
             id="path124900-9"
             transform="matrix(0.21820024,0,0,-0.21820024,-166.7022,-211.2587)" />
          <path
             d="m 815.69362,-1869.0801 c 2.154,2.258 7.529,8.342 11.452,16.615 5.017,10.578 5.762,20.73 5.762,20.73 0,0 -7.389,-7 -12.405,-17.578 -4.1,-8.644 -5.345,-16.999 -5.664,-19.767 z"
             style="fill:#66b48c;fill-opacity:1;fill-rule:nonzero;stroke:none"
             id="path124904-6"
             transform="matrix(0.21820024,0,0,-0.21820024,-166.7022,-211.2587)" />
          <path
             d="m 812.82742,-1869.0801 h 0.972 c 0.141,3.061 0.212,11.238 -2.295,20.125 -3.178,11.268 -9.293,19.403 -9.293,19.403 0,0 -0.963,-10.132 2.216,-21.399 2.433,-8.632 6.588,-15.422 8.4,-18.129"
             style="fill:#66b48c;fill-opacity:1;fill-rule:nonzero;stroke:none"
             id="path124908-4"
             transform="matrix(0.21820024,0,0,-0.21820024,-166.7022,-211.2587)" />
          <path
             d="m 812.62232,-1869.0801 h 1.293 c -0.945,2.817 -3.856,10.557 -9.49,18.016 -7.058,9.341 -15.713,14.698 -15.713,14.698 0,0 2.786,-9.79 9.846,-19.13 5.18,-6.858 11.217,-11.564 14.064,-13.584"
             style="fill:#66b48c;fill-opacity:1;fill-rule:nonzero;stroke:none"
             id="path124912-8"
             transform="matrix(0.21820024,0,0,-0.21820024,-166.7022,-211.2587)" />
          <path
             d="m 804.89482,-1869.0801 h 8.239 c -2.703,2.32 -8.652,6.968 -16.427,10.309 -10.756,4.623 -20.927,4.992 -20.927,4.992 0,0 7.267,-7.126 18.023,-11.748 3.933,-1.691 7.784,-2.81 11.092,-3.553"
             style="fill:#66b48c;fill-opacity:1;fill-rule:nonzero;stroke:none"
             id="path124916-0"
             transform="matrix(0.21820024,0,0,-0.21820024,-166.7022,-211.2587)" />
          <path
             d="m 815.10572,-1869.0801 c 1.142,3.22 3.414,10.641 3.687,19.357 0.366,11.703 -3.013,21.303 -3.013,21.303 0,0 -3.972,-9.371 -4.337,-21.073 -0.274,-8.748 1.545,-16.321 2.48,-19.587 z"
             style="fill:#66b48c;fill-opacity:1;fill-rule:nonzero;stroke:none"
             id="path124920-8"
             transform="matrix(0.21820024,0,0,-0.21820024,-166.7022,-211.2587)" />
          <path
             d="m 823.60472,-1869.0801 c 3.455,0.674 7.567,1.748 11.784,3.466 10.842,4.416 18.244,11.403 18.244,11.403 0,0 -10.175,-0.176 -21.017,-4.593 -8.178,-3.331 -14.397,-8.121 -16.96,-10.276 z"
             style="fill:#66b48c;fill-opacity:1;fill-rule:nonzero;stroke:none"
             id="path124924-1"
             transform="matrix(0.21820024,0,0,-0.21820024,-166.7022,-211.2587)" />
          <path
             d="m 756.22058,-1866.1442 -28.182,10.221 39.975,9.826 c 4.607,9.672 7.682,20.439 7.191,33.713 -1.287,34.686 -3.619,53.79 10.442,81.793 14.07,28.003 11.867,56.122 -22.449,74.63 -37.319,11.29 -58.815,-6.972 -68.762,-36.686 -9.944,-29.719 -25.131,-41.532 -50.645,-65.075 -25.511,-23.543 -21.757,-52.304 -31.957,-78.285 -10.205,-25.984 -50.214,-33.521 -58.206,-94.879 -7.994,-61.358 61.935,-79.983 61.935,-79.983 0,0 62.513,-36.467 100.394,12.461 37.881,48.922 15.02,82.613 26.252,108.166 3.789,8.618 8.922,16.328 14.012,24.098"
             style="fill:#7066f7;fill-opacity:1;fill-rule:nonzero;stroke:none"
             id="path122870"
             transform="matrix(0.21820024,0,0,-0.21820024,-166.7022,-211.2587)" />
          <path
             d="m 756.22058,-1866.1442 -28.182,10.221 39.975,9.826 c 4.607,9.672 7.682,20.439 7.191,33.713 -1.287,34.686 -3.619,53.79 10.442,81.793 13.232,26.325 12.066,52.757 -16.637,71.202 -20.533,-8.572 -28.564,-28.668 -38.992,-50.172 -12.156,-24.867 -36.106,-36.665 -45.17,-62.819 -8.102,-23.836 -1.584,-47.4 -3.951,-72.711 -3.463,-25.761 -27.475,-42.071 -34.67,-68.096 -12.889,-47.795 31.697,-80.643 74.805,-78.196 30.621,45.147 10.496,76.833 21.177,101.141 3.789,8.618 8.922,16.328 14.012,24.098"
             style="fill:#5640ed;fill-opacity:1;fill-rule:nonzero;stroke:none"
             id="path122874"
             transform="matrix(0.21820024,0,0,-0.21820024,-166.7022,-211.2587)" />
          <path
             d="m 749.65028,-1685.1525 c -51.307,-123.335 -102.611,-246.671 -153.914,-370.014 -1.348,-3.23 3.914,-4.632 5.238,-1.441 41.619,100.045 83.231,200.088 124.85,300.131 9.689,23.295 19.375,46.588 29.064,69.882 1.348,3.236 -3.912,4.634 -5.238,1.442 -41.615,-100.042 -83.232,-200.087 -124.848,-300.129 -9.689,-23.297 -19.379,-46.586 -29.066,-69.885 1.746,-0.478 3.492,-0.961 5.238,-1.441 51.305,123.34 102.61,246.675 153.914,370.013 1.348,3.236 -3.912,4.634 -5.238,1.442"
             style="fill:#f5ddca;fill-opacity:1;fill-rule:nonzero;stroke:none"
             id="path122878"
             transform="matrix(0.21820024,0,0,-0.21820024,-166.7022,-211.2587)" />
          <path
             d="m 742.93706,-2128.4405 c 24.441,10.076 48.889,20.162 73.328,30.246 3.195,1.316 1.799,6.577 -1.443,5.238 -24.444,-10.083 -48.885,-20.166 -73.33,-30.244 -3.192,-1.318 -1.797,-6.578 1.445,-5.24"
             style="fill:#f5ddca;fill-opacity:1;fill-rule:nonzero;stroke:none"
             id="path122882"
             transform="matrix(0.21820024,0,0,-0.21820024,-166.7022,-211.2587)" />
          <path
             d="m 737.89796,-2018.8038 c 7.379,-17.877 14.746,-35.756 22.125,-53.631 1.314,-3.196 6.574,-1.797 5.24,1.442 -7.377,17.878 -14.748,35.757 -22.125,53.637 -1.318,3.189 -6.578,1.794 -5.24,-1.448"
             style="fill:#f5ddca;fill-opacity:1;fill-rule:nonzero;stroke:none"
             id="path122886"
             transform="matrix(0.21820024,0,0,-0.21820024,-166.7022,-211.2587)" />
          <path
             d="m 787.58546,-2018.5577 c 15.928,6.569 31.863,13.145 47.797,19.711 3.189,1.316 1.795,6.578 -1.447,5.242 -15.936,-6.566 -31.864,-13.142 -47.793,-19.712 -3.194,-1.317 -1.795,-6.579 1.443,-5.241"
             style="fill:#f5ddca;fill-opacity:1;fill-rule:nonzero;stroke:none"
             id="path122890"
             transform="matrix(0.21820024,0,0,-0.21820024,-166.7022,-211.2587)" />
          <path
             d="m 798.29836,-1896.7731 c 5.617,-13.618 11.236,-27.24 16.852,-40.86 1.316,-3.194 6.578,-1.793 5.238,1.448 -5.615,13.619 -11.233,27.237 -16.852,40.86 -1.316,3.191 -6.576,1.795 -5.238,-1.448"
             style="fill:#f5ddca;fill-opacity:1;fill-rule:nonzero;stroke:none"
             id="path122894"
             transform="matrix(0.21820024,0,0,-0.21820024,-166.7022,-211.2587)" />
          <path
             d="m 307.73686,-2058.9601 c 0,0 -85.177,6.248 -75.715,-9.523 9.464,-15.77 148.922,-21.028 273.693,-18.923 124.772,2.103 213.886,2.27 278.669,-0.443 64.784,-2.713 144.026,26.466 -15.623,39.467 -159.647,12.999 -302.831,-13.598 -362.486,-13.168 -59.656,0.428 -98.538,2.59 -98.538,2.59"
             style="fill:#5640ed;fill-opacity:1;fill-rule:nonzero;stroke:none"
             id="path122906"
             transform="matrix(0.21820024,0,0,-0.21820024,-166.7022,-211.2587)" />
          <path
             d="m 507.16706,-2119.4503 c 0,0 440.831,28.889 391.417,13.119 -49.417,-15.769 -96.809,-24.18 -229.764,-26.283 -132.956,-2.104 -233.469,8.67 -161.653,13.164"
             style="fill:#756bfc;fill-opacity:1;fill-rule:nonzero;stroke:none"
             id="path122910"
             transform="matrix(0.21820024,0,0,-0.21820024,-166.7022,-211.2587)" />
          <path
             d="m 289.65876,-2153.7548 c 0,0 313.814,9.613 278.328,-0.365 -35.487,-9.981 -69.356,-14.78 -163.839,-12.983 -94.485,1.795 -165.608,11.934 -114.489,13.348"
             style="fill:#756bfc;fill-opacity:1;fill-rule:nonzero;stroke:none"
             id="path122914"
             transform="matrix(0.21820024,0,0,-0.21820024,-166.7022,-211.2587)" />
          <path
             d="m 241.81458,-2272.3175 c 0,0 313.814,9.613 278.328,-0.365 -35.487,-9.981 -69.356,-14.78 -163.839,-12.983 -94.485,1.795 -165.608,11.934 -114.489,13.348"
             style="fill:#756bfc;fill-opacity:1;fill-rule:nonzero;stroke:none"
             id="path122914-2"
             transform="matrix(0.21820024,0,0,-0.21820024,-166.7022,-211.2587)" />
          <path
             d="m 559.50818,-2216.5398 c 0,0 313.814,9.613 278.328,-0.365 -35.487,-9.981 -69.356,-14.78 -163.839,-12.983 -94.485,1.795 -165.608,11.934 -114.489,13.348"
             style="fill:#756bfc;fill-opacity:1;fill-rule:nonzero;stroke:none"
             id="path122914-2-0"
             transform="matrix(0.21820024,0,0,-0.21820024,-166.7022,-211.2587)" />
          <path
             d="m 533.03264,-2328.2803 c 0,0 476.01736,14.5817 422.18944,-0.5537 -53.82943,-15.14 -105.20455,-22.4195 -248.52367,-19.6936 -143.32216,2.7228 -251.20703,18.1024 -173.66577,20.2473"
             style="fill:#756bfc;fill-opacity:1;fill-rule:nonzero;stroke:none;stroke-width:1.51688"
             id="path122914-2-0-2"
             transform="matrix(0.21820024,0,0,-0.21820024,-166.7022,-211.2587)" />
          <path
             d="m 429.70246,-2018.4729 h -11.355 v 113.113 h 11.355 z"
             style="fill:#2e6066;fill-opacity:1;fill-rule:nonzero;stroke:none"
             id="path122916"
             transform="matrix(0.21820024,0,0,-0.21820024,-166.7022,-211.2587)" />
          <path
             d="m 658.65346,-2016.045 h -11.358 v 113.113 h 11.358 z"
             style="fill:#2e6066;fill-opacity:1;fill-rule:nonzero;stroke:none"
             id="path122918"
             transform="matrix(0.21820024,0,0,-0.21820024,-166.7022,-211.2587)" />
          <path
             d="m 736.68506,-1901.5265 c 0,-5.134 -4.881,-9.296 -10.902,-9.296 h -389.743 c -6.021,0 -10.902,4.162 -10.902,9.296 0,5.135 4.881,9.297 10.902,9.297 h 389.743 c 6.021,0 10.902,-4.162 10.902,-9.297"
             style="fill:#5898a0;fill-opacity:1;fill-rule:nonzero;stroke:none"
             id="path122922"
             transform="matrix(0.21820024,0,0,-0.21820024,-166.7022,-211.2587)" />
          <path
             d="m 736.68506,-1932.5157 c 0,-5.135 -4.881,-9.297 -10.902,-9.297 h -389.743 c -6.021,0 -10.902,4.162 -10.902,9.297 0,5.134 4.881,9.296 10.902,9.296 h 389.743 c 6.021,0 10.902,-4.162 10.902,-9.296"
             style="fill:#5898a0;fill-opacity:1;fill-rule:nonzero;stroke:none"
             id="path122926"
             transform="matrix(0.21820024,0,0,-0.21820024,-166.7022,-211.2587)" />
          <path
             d="m 736.68506,-1963.5069 c 0,-5.134 -4.881,-9.296 -10.902,-9.296 h -389.743 c -6.021,0 -10.902,4.162 -10.902,9.296 0,5.136 4.881,9.298 10.902,9.298 h 389.743 c 6.021,0 10.902,-4.162 10.902,-9.298"
             style="fill:#5898a0;fill-opacity:1;fill-rule:nonzero;stroke:none"
             id="path122930"
             transform="matrix(0.21820024,0,0,-0.21820024,-166.7022,-211.2587)" />
          <path
             d="m 736.68506,-1994.4962 c 0,-5.135 -4.881,-9.297 -10.902,-9.297 h -389.743 c -6.021,0 -10.902,4.162 -10.902,9.297 0,5.135 4.881,9.297 10.902,9.297 h 389.743 c 6.021,0 10.902,-4.162 10.902,-9.297"
             style="fill:#5898a0;fill-opacity:1;fill-rule:nonzero;stroke:none"
             id="path122934"
             transform="matrix(0.21820024,0,0,-0.21820024,-166.7022,-211.2587)" />
          <path
             d="m 385.71946,-2092.5674 h -17.484 v 85.739 h 17.484 z"
             style="fill:#407c87;fill-opacity:1;fill-rule:nonzero;stroke:none"
             id="path122936"
             transform="matrix(0.21820024,0,0,-0.21820024,-166.7022,-211.2587)" />
          <g
             id="g122950"
             transform="matrix(0.21820024,0,0,-0.21820024,-145.22683,376.62999)">
            <g
               clip-path="url(#clipPath122944)"
               id="g122948">
              <path
                 d="m 269.815,673.767 h 17.484 v 13.667 h -17.484 z"
                 style="fill:#6d6558;fill-opacity:1;fill-rule:nonzero;stroke:none"
                 id="path122946" />
            </g>
          </g>
          <path
             d="m 430.24046,-2088.5419 h -12.433 v 77.298 h 12.433 z"
             style="fill:#5898a0;fill-opacity:1;fill-rule:nonzero;stroke:none"
             id="path122952"
             transform="matrix(0.21820024,0,0,-0.21820024,-166.7022,-211.2587)" />
          <g
             id="g122966"
             transform="matrix(0.21820024,0,0,-0.21820024,-145.22683,378.2173)">
            <g
               clip-path="url(#clipPath122960)"
               id="g122964">
              <path
                 d="m 319.387,677.972 h 12.433 v 12.32 h -12.433 z"
                 style="fill:#6d6558;fill-opacity:1;fill-rule:nonzero;stroke:none"
                 id="path122962" />
            </g>
          </g>
          <path
             d="m 659.19246,-2086.114 h -12.432 v 77.298 h 12.432 z"
             style="fill:#5898a0;fill-opacity:1;fill-rule:nonzero;stroke:none"
             id="path122968"
             transform="matrix(0.21820024,0,0,-0.21820024,-166.7022,-211.2587)" />
          <g
             id="g122982"
             transform="matrix(0.21820024,0,0,-0.21820024,-145.22683,377.68751)">
            <g
               clip-path="url(#clipPath122976)"
               id="g122980">
              <path
                 d="m 548.34,677.972 h 12.432 v 12.32 H 548.34 Z"
                 style="fill:#6d6558;fill-opacity:1;fill-rule:nonzero;stroke:none"
                 id="path122978" />
            </g>
          </g>
          <path
             d="m 703.22046,-2097.414 h -17.484 v 85.739 h 17.484 z"
             style="fill:#407c87;fill-opacity:1;fill-rule:nonzero;stroke:none"
             id="path122984"
             transform="matrix(0.21820024,0,0,-0.21820024,-166.7022,-211.2587)" />
          <g
             id="g122998"
             transform="matrix(0.21820024,0,0,-0.21820024,-145.22683,377.68751)">
            <g
               clip-path="url(#clipPath122992)"
               id="g122996">
              <path
                 d="m 587.315,673.767 h 17.484 v 13.667 h -17.484 z"
                 style="fill:#6d6558;fill-opacity:1;fill-rule:nonzero;stroke:none"
                 id="path122994" />
            </g>
          </g>
          <path
             d="m 751.04056,-2007.9474 c 0,-3.861 -5.502,-6.989 -12.291,-6.989 h -410.383 c -6.786,0 -12.287,3.128 -12.287,6.989 0,3.861 5.501,6.99 12.287,6.99 h 410.383 c 6.789,0 12.291,-3.129 12.291,-6.99"
             style="fill:#414a6b;fill-opacity:1;fill-rule:nonzero;stroke:none"
             id="path123002"
             transform="matrix(0.21820024,0,0,-0.21820024,-166.7022,-211.2587)" />
          <g
             id="g123018"
             transform="matrix(0.21820024,0,0,-0.21820024,-145.22683,377.68751)">
            <g
               clip-path="url(#clipPath123010)"
               id="g123016">
              <g
                 transform="translate(217.6587,691.1616)"
                 id="g123014">
                <path
                   d="M 0,0 C 0,-3.861 5.501,-6.989 12.287,-6.989 H 422.67 c 6.789,0 12.291,3.128 12.291,6.989 0,0.264 -0.029,0.522 -0.082,0.775 H 0.078 C 0.03,0.522 0,0.264 0,0"
                   style="fill:#6d6558;fill-opacity:1;fill-rule:nonzero;stroke:none"
                   id="path123012" />
              </g>
            </g>
          </g>
          <path
             d="m 720.61476,-1841.5934 -19.212,-13.358 c 0,0 -48.722,-19.59 -55.973,-22.517 -7.251,-2.925 -22.898,-6.615 -22.898,-18.446 0,-11.831 8.65,-9.541 11.065,-4.962 2.42,4.581 5.98,10.687 14.251,9.796 8.267,-0.891 48.342,5.216 61.444,12.976 13.105,7.76 25.317,15.012 25.317,15.012 z"
             style="fill:#ffb38c;fill-opacity:1;fill-rule:nonzero;stroke:none"
             id="path123022"
             transform="matrix(0.21820024,0,0,-0.21820024,-166.7022,-211.2587)" />
          <path
             d="m 747.89706,-1867.3551 c 0.111,0.284 0.221,0.568 0.336,0.851 2.268,5.602 4.508,11.371 8.126,16.259 1.572,2.124 3.363,4.02 5.315,5.647 0.511,14.204 1.268,28.398 2.476,42.568 -17.44,-6.23 -55.73,-41.548 -55.73,-41.548 l 18.32,-33.246 20.608,11.54 c 0,0 0.174,-0.728 0.549,-2.071"
             style="fill:#f7abba;fill-opacity:1;fill-rule:nonzero;stroke:none"
             id="path123026"
             transform="matrix(0.21820024,0,0,-0.21820024,-166.7022,-211.2587)" />
          <g
             id="g123046"
             transform="matrix(0.21820024,0,0,-0.21820024,-145.22683,377.68751)">
            <g
               clip-path="url(#clipPath123034)"
               id="g123044">
              <g
                 transform="translate(622.1943,857.5156)"
                 id="g123038">
                <path
                   d="m 0,0 -19.212,-13.358 c 0,0 -48.722,-19.59 -55.973,-22.517 -7.251,-2.925 -22.898,-6.615 -22.898,-18.446 0,-11.831 8.65,-9.541 11.065,-4.962 2.42,4.581 5.98,10.687 14.251,9.796 8.267,-0.891 48.342,5.216 61.444,12.976 13.105,7.76 25.317,15.012 25.317,15.012 z"
                   style="fill:#ffb38c;fill-opacity:1;fill-rule:nonzero;stroke:none"
                   id="path123036" />
              </g>
              <g
                 transform="translate(649.4766,831.7539)"
                 id="g123042">
                <path
                   d="m 0,0 c 0.111,0.284 0.221,0.568 0.336,0.851 2.268,5.602 4.508,11.371 8.126,16.259 1.572,2.124 3.363,4.02 5.315,5.647 0.511,14.204 1.268,28.398 2.476,42.568 -17.44,-6.23 -55.73,-41.548 -55.73,-41.548 l 18.32,-33.246 20.608,11.54 c 0,0 0.174,-0.728 0.549,-2.071"
                   style="fill:#f7abba;fill-opacity:1;fill-rule:nonzero;stroke:none"
                   id="path123040" />
              </g>
            </g>
          </g>
          <path
             d="m 616.32426,-1918.2482 h -9.943 c -7.794,0 -14.134,6.34 -14.134,14.133 0,7.793 6.34,14.133 14.134,14.133 h 44.962 v -3.741 h -44.962 c -5.732,0 -10.393,-4.661 -10.393,-10.392 0,-5.73 4.661,-10.392 10.393,-10.392 h 9.943 z"
             style="fill:#0f337a;fill-opacity:1;fill-rule:nonzero;stroke:none"
             id="path123050"
             transform="matrix(0.21820024,0,0,-0.21820024,-166.7022,-211.2587)" />
          <path
             d="m 621.79156,-1909.9039 h -9.944 c -7.791,0 -14.133,6.341 -14.133,14.133 0,7.795 6.342,14.134 14.133,14.134 h 44.963 v -3.741 h -44.963 c -5.731,0 -10.394,-4.661 -10.394,-10.393 0,-5.731 4.663,-10.391 10.394,-10.391 h 9.944 z"
             style="fill:#0f337a;fill-opacity:1;fill-rule:nonzero;stroke:none"
             id="path123054"
             transform="matrix(0.21820024,0,0,-0.21820024,-166.7022,-211.2587)" />
          <path
             d="m 723.36966,-1831.025 -19.211,-13.358 c 0,0 -48.723,-19.59 -55.973,-22.517 -7.253,-2.926 -22.9,-6.615 -22.9,-18.446 0,-11.831 8.652,-9.541 11.069,-4.962 2.416,4.581 5.978,10.687 14.246,9.796 8.271,-0.89 48.344,5.216 61.447,12.975 13.102,7.761 25.314,15.013 25.314,15.013 z"
             style="fill:#ffb38c;fill-opacity:1;fill-rule:nonzero;stroke:none"
             id="path123058"
             transform="matrix(0.21820024,0,0,-0.21820024,-166.7022,-211.2587)" />
          <path
             d="m 737.36186,-1852.524 -13.883,21.332 c -0.082,0.042 -0.148,0.077 -0.2,0.103 l -11.183,-7.775 c 2.498,-6.724 7.955,-26.469 -11.843,-31.282 -23.97,-5.826 -40.34,-8.519 -47.842,-8.537 -6.344,-0.014 -12.74,-1.23 -14.805,-9.371 2.414,4.083 6.033,8.292 12.995,7.542 8.271,-0.89 48.344,5.216 61.447,12.975 13.102,7.761 25.314,15.013 25.314,15.013"
             style="fill:#ef966f;fill-opacity:1;fill-rule:nonzero;stroke:none"
             id="path123062"
             transform="matrix(0.21820024,0,0,-0.21820024,-166.7022,-211.2587)" />
          <path
             d="m 905.71346,-2094.7511 -1.076,-0.04 -3.71,99.93 1.077,0.04 z"
             style="fill:#669df4;fill-opacity:1;fill-rule:nonzero;stroke:none"
             id="path123066"
             transform="matrix(0.21820024,0,0,-0.21820024,-166.7022,-211.2587)" />
          <path
             d="m 904.74566,-2095.0958 -60.357,79.73 0.864,0.654 60.353,-79.734 z"
             style="fill:#669df4;fill-opacity:1;fill-rule:nonzero;stroke:none"
             id="path123070"
             transform="matrix(0.21820024,0,0,-0.21820024,-166.7022,-211.2587)" />
          <path
             d="m 905.00836,-2095.2862 -95.171,30.696 0.336,1.028 95.168,-30.693 z"
             style="fill:#669df4;fill-opacity:1;fill-rule:nonzero;stroke:none"
             id="path123074"
             transform="matrix(0.21820024,0,0,-0.21820024,-166.7022,-211.2587)" />
          <path
             d="m 809.76906,-2124.7301 -0.315,1.031 95.563,29.442 0.317,-1.031 z"
             style="fill:#669df4;fill-opacity:1;fill-rule:nonzero;stroke:none"
             id="path123078"
             transform="matrix(0.21820024,0,0,-0.21820024,-166.7022,-211.2587)" />
          <path
             d="m 844.20956,-2174.0367 -0.854,0.662 61.394,78.936 0.85,-0.663 z"
             style="fill:#669df4;fill-opacity:1;fill-rule:nonzero;stroke:none"
             id="path123082"
             transform="matrix(0.21820024,0,0,-0.21820024,-166.7022,-211.2587)" />
          <path
             d="m 900.69776,-2194.6695 -1.078,0.053 5.017,99.874 1.077,-0.056 z"
             style="fill:#669df4;fill-opacity:1;fill-rule:nonzero;stroke:none"
             id="path123086"
             transform="matrix(0.21820024,0,0,-0.21820024,-166.7022,-211.2587)" />
          <path
             d="m 957.89216,-2179.7438 -53.174,84.686 0.917,0.575 53.174,-84.691 z"
             style="fill:#669df4;fill-opacity:1;fill-rule:nonzero;stroke:none"
             id="path123090"
             transform="matrix(0.21820024,0,0,-0.21820024,-166.7022,-211.2587)" />
          <path
             d="m 997.10016,-2134.1412 -92.133,38.872 0.42,0.997 92.133,-38.875 z"
             style="fill:#669df4;fill-opacity:1;fill-rule:nonzero;stroke:none"
             id="path123094"
             transform="matrix(0.21820024,0,0,-0.21820024,-166.7022,-211.2587)" />
          <path
             d="m 905.28766,-2095.2985 -0.226,1.055 97.77304,21.003 0.224,-1.056 z"
             style="fill:#669df4;fill-opacity:1;fill-rule:nonzero;stroke:none"
             id="path123098"
             transform="matrix(0.21820024,0,0,-0.21820024,-166.7022,-211.2587)" />
          <path
             d="m 905.57086,-2095.1383 -0.791,0.735 68.042,73.286 0.792,-0.735 z"
             style="fill:#669df4;fill-opacity:1;fill-rule:nonzero;stroke:none"
             id="path123102"
             transform="matrix(0.21820024,0,0,-0.21820024,-166.7022,-211.2587)" />
          <path
             d="m 539.65486,-2094.7511 -1.078,-0.04 -3.71,99.93 1.08,0.04 z"
             style="fill:#669df4;fill-opacity:1;fill-rule:nonzero;stroke:none"
             id="path123106"
             transform="matrix(0.21820024,0,0,-0.21820024,-166.7022,-211.2587)" />
          <path
             d="m 538.68556,-2095.0958 -60.357,79.73 0.866,0.654 60.353,-79.734 z"
             style="fill:#669df4;fill-opacity:1;fill-rule:nonzero;stroke:none"
             id="path123110"
             transform="matrix(0.21820024,0,0,-0.21820024,-166.7022,-211.2587)" />
          <path
             d="m 538.94826,-2095.2862 -95.169,30.696 0.334,1.028 95.169,-30.693 z"
             style="fill:#669df4;fill-opacity:1;fill-rule:nonzero;stroke:none"
             id="path123114"
             transform="matrix(0.21820024,0,0,-0.21820024,-166.7022,-211.2587)" />
          <path
             d="m 443.70906,-2124.7301 -0.315,1.031 95.565,29.442 0.315,-1.031 z"
             style="fill:#669df4;fill-opacity:1;fill-rule:nonzero;stroke:none"
             id="path123118"
             transform="matrix(0.21820024,0,0,-0.21820024,-166.7022,-211.2587)" />
          <path
             d="m 478.14946,-2174.0367 -0.853,0.662 61.395,78.936 0.849,-0.663 z"
             style="fill:#669df4;fill-opacity:1;fill-rule:nonzero;stroke:none"
             id="path123122"
             transform="matrix(0.21820024,0,0,-0.21820024,-166.7022,-211.2587)" />
          <path
             d="m 534.63776,-2194.6695 -1.078,0.053 5.017,99.874 1.078,-0.056 z"
             style="fill:#669df4;fill-opacity:1;fill-rule:nonzero;stroke:none"
             id="path123126"
             transform="matrix(0.21820024,0,0,-0.21820024,-166.7022,-211.2587)" />
          <path
             d="m 591.83406,-2179.7438 -53.175,84.686 0.916,0.575 53.175,-84.691 z"
             style="fill:#669df4;fill-opacity:1;fill-rule:nonzero;stroke:none"
             id="path123130"
             transform="matrix(0.21820024,0,0,-0.21820024,-166.7022,-211.2587)" />
          <path
             d="m 631.04006,-2134.1412 -92.133,38.872 0.42,0.997 92.133,-38.875 z"
             style="fill:#669df4;fill-opacity:1;fill-rule:nonzero;stroke:none"
             id="path123134"
             transform="matrix(0.21820024,0,0,-0.21820024,-166.7022,-211.2587)" />
          <path
             d="m 539.22806,-2095.2985 -0.226,1.055 97.774,21.003 0.224,-1.056 z"
             style="fill:#669df4;fill-opacity:1;fill-rule:nonzero;stroke:none"
             id="path123138"
             transform="matrix(0.21820024,0,0,-0.21820024,-166.7022,-211.2587)" />
          <path
             d="m 539.51126,-2095.1383 -0.791,0.735 68.042,73.286 0.792,-0.735 z"
             style="fill:#669df4;fill-opacity:1;fill-rule:nonzero;stroke:none"
             id="path123142"
             transform="matrix(0.21820024,0,0,-0.21820024,-166.7022,-211.2587)" />
          <path
             d="m 728.43316,-1723.8981 c 0,0 19.053,25.933 31.948,12.398 12.89,-13.53 31.712,5.462 31.409,-15.097 -0.307,-20.566 25.739,10.538 27.301,-12.123 1.566,-22.662 37.185,-21.065 33.612,-46.4 -3.579,-25.338 -40.206,-18.055 -30.063,-46.873 10.148,-28.816 -62.846,15.524 -76.983,7.014 -14.133,-8.513 -4.06,33.106 -18.27,29.552 -14.217,-3.554 -26.266,3.146 -16.76,17.511 9.503,14.363 -17.132,44.125 17.806,54.018"
             style="fill:#091433;fill-opacity:1;fill-rule:nonzero;stroke:none"
             id="path123146"
             transform="matrix(0.21820024,0,0,-0.21820024,-166.7022,-211.2587)" />
          <path
             d="m 723.32086,-1764.2677 c 0.282,-1.748 1.593,-2.976 2.929,-2.741 1.336,0.24 2.192,1.852 1.911,3.603 -0.289,1.754 -1.598,2.983 -2.936,2.745 -1.336,-0.241 -2.187,-1.852 -1.904,-3.607"
             style="fill:#adadad;fill-opacity:1;fill-rule:evenodd;stroke:none"
             id="path123150"
             transform="matrix(0.21820024,0,0,-0.21820024,-166.7022,-211.2587)" />
          <path
             d="m 723.58256,-1764.8004 c 0.459,-2.047 0.975,-4.083 1.449,-6.124 0.092,-0.397 0.253,-0.706 0.574,-0.894 0.037,-0.02 0.069,-0.039 0.1,-0.053 0.192,-0.047 0.365,-0.018 0.525,0.045 0.033,0.01 0.058,0.021 0.086,0.032 0.022,0.014 0.052,0.024 0.077,0.04 0.059,0.03 0.117,0.063 0.169,0.098 0.083,0.061 0.139,0.142 0.182,0.239 0.117,0.272 0.085,0.66 0.003,0.993 -0.262,1.018 -0.468,2.05 -0.755,3.061 -0.163,0.588 -0.06,0.811 0.506,1.122 1.055,0.579 0.674,2.29 0.57,2.711 -0.92,3.833 -4.072,1.344 -3.486,-1.27"
             style="fill:#e4e4e4;fill-opacity:1;fill-rule:evenodd;stroke:none"
             id="path123154"
             transform="matrix(0.21820024,0,0,-0.21820024,-166.7022,-211.2587)" />
          <path
             d="m 724.61966,-1763.8844 c 0.038,-0.207 -0.085,-0.402 -0.274,-0.445 -0.195,-0.041 -0.38,0.089 -0.421,0.289 -0.036,0.203 0.084,0.401 0.277,0.442 0.19,0.046 0.381,-0.087 0.418,-0.286"
             style="fill:#ffffff;fill-opacity:1;fill-rule:nonzero;stroke:none"
             id="path123158"
             transform="matrix(0.21820024,0,0,-0.21820024,-166.7022,-211.2587)" />
          <path
             d="m 724.46636,-1766.4586 c 0.035,-0.201 0.226,-0.333 0.415,-0.288 0.194,0.039 0.318,0.237 0.277,0.44 l -0.263,1.336 c -0.039,0.203 -0.229,0.331 -0.422,0.289 -0.192,-0.043 -0.315,-0.236 -0.276,-0.439 z"
             style="fill:#ffffff;fill-opacity:1;fill-rule:nonzero;stroke:none"
             id="path123162"
             transform="matrix(0.21820024,0,0,-0.21820024,-166.7022,-211.2587)" />
          <path
             d="m 692.46926,-1992.3873 15.379,-38.167 c 0,0 -30.17,-17.483 -25.141,-20.325 5.03,-2.84 47.656,9.069 47.656,9.069 l -13.066,54.149 z"
             style="fill:#ffb38c;fill-opacity:1;fill-rule:nonzero;stroke:none"
             id="path123166"
             transform="matrix(0.21820024,0,0,-0.21820024,-166.7022,-211.2587)" />
          <path
             d="m 697.68416,-2036.8038 c 0,0 3.415,-8.2 12.784,-7.066 0,0 21.302,6.256 22.546,2.651 1.246,-3.605 -6.968,-5.578 -22.09,-8.457 -15.121,-2.877 -33.838,-8.639 -31.052,-0.145 2.787,8.494 15.636,15.871 17.667,12.99"
             style="fill:#102492;fill-opacity:1;fill-rule:nonzero;stroke:none"
             id="path123170"
             transform="matrix(0.21820024,0,0,-0.21820024,-166.7022,-211.2587)" />
          <path
             d="m 805.65386,-1899.8409 c 0,0 -179.119,43.253 -107.37,-111.95 h 50.888 l -15.778,58.745 27.227,1.81 c 0,0 50.63,21.881 51.139,22.645 0.509,0.763 6.106,12.721 6.106,12.721 z"
             style="fill:#162792;fill-opacity:1;fill-rule:nonzero;stroke:none"
             id="path123174"
             transform="matrix(0.21820024,0,0,-0.21820024,-166.7022,-211.2587)" />
          <path
             d="m 801.24346,-1951.235 h -199.451 v 7.124 h 199.451 z"
             style="fill:#0f337a;fill-opacity:1;fill-rule:nonzero;stroke:none"
             id="path123176"
             transform="matrix(0.21820024,0,0,-0.21820024,-166.7022,-211.2587)" />
          <path
             d="m 726.34036,-2092.7184 -13.918,37.289 3.815,1.423 13.919,-37.289 z"
             style="fill:#2e2442;fill-opacity:1;fill-rule:nonzero;stroke:none"
             id="path123180"
             transform="matrix(0.21820024,0,0,-0.21820024,-166.7022,-211.2587)" />
          <path
             d="m 729.14506,-2070.1197 c -12.82,0 -23.25,-10.429 -23.25,-23.248 0,-12.819 10.43,-23.249 23.25,-23.249 12.82,0 23.247,10.43 23.247,23.249 0,12.819 -10.427,23.248 -23.247,23.248 m 0,-56.674 c -18.432,0 -33.426,14.995 -33.426,33.426 0,18.431 14.994,33.425 33.426,33.425 18.43,0 33.425,-14.994 33.425,-33.425 0,-18.431 -14.995,-33.426 -33.425,-33.426"
             style="fill:#669df4;fill-opacity:1;fill-rule:nonzero;stroke:none"
             id="path123184"
             transform="matrix(0.21820024,0,0,-0.21820024,-166.7022,-211.2587)" />
          <path
             d="m 540.19736,-1995.5582 c -53.158,0 -96.403,-43.247 -96.403,-96.404 0,-53.158 43.245,-96.405 96.403,-96.405 53.159,0 96.404,43.247 96.404,96.405 0,53.157 -43.245,96.404 -96.404,96.404 m 0,-201.969 c -58.208,0 -105.562,47.358 -105.562,105.565 0,58.208 47.354,105.564 105.562,105.564 58.208,0 105.563,-47.356 105.563,-105.564 0,-58.207 -47.355,-105.565 -105.563,-105.565"
             style="fill:#0f337a;fill-opacity:1;fill-rule:nonzero;stroke:none"
             id="path123188"
             transform="matrix(0.21820024,0,0,-0.21820024,-166.7022,-211.2587)" />
          <path
             d="m 905.51716,-1995.5582 c -53.158,0 -96.403,-43.247 -96.403,-96.404 0,-53.158 43.245,-96.405 96.403,-96.405 53.155,0 96.40204,43.247 96.40204,96.405 0,53.157 -43.24704,96.404 -96.40204,96.404 m 0,-201.969 c -58.208,0 -105.563,47.358 -105.563,105.565 0,58.208 47.355,105.564 105.563,105.564 58.209,0 105.56204,-47.356 105.56204,-105.564 0,-58.207 -47.35304,-105.565 -105.56204,-105.565"
             style="fill:#0f337a;fill-opacity:1;fill-rule:nonzero;stroke:none"
             id="path123192"
             transform="matrix(0.21820024,0,0,-0.21820024,-166.7022,-211.2587)" />
          <path
             d="m 543.47316,-2093.3614 -6.551,2.798 78.323,183.471 6.55,-2.797 z"
             style="fill:#0f337a;fill-opacity:1;fill-rule:nonzero;stroke:none"
             id="path123196"
             transform="matrix(0.21820024,0,0,-0.21820024,-166.7022,-211.2587)" />
          <path
             d="m 728.15486,-2097.3287 -136.652,128.677 4.883,5.187 136.651,-128.677 z"
             style="fill:#0f337a;fill-opacity:1;fill-rule:nonzero;stroke:none"
             id="path123200"
             transform="matrix(0.21820024,0,0,-0.21820024,-166.7022,-211.2587)" />
          <path
             d="m 905.51746,-2098.297 h -174.921 v 7.124 h 174.921 z"
             style="fill:#0f337a;fill-opacity:1;fill-rule:nonzero;stroke:none"
             id="path123202"
             transform="matrix(0.21820024,0,0,-0.21820024,-166.7022,-211.2587)" />
          <path
             d="m 902.61086,-2096.7955 -104.271,147.062 5.81,4.12 104.273,-147.061 z"
             style="fill:#0f337a;fill-opacity:1;fill-rule:nonzero;stroke:none"
             id="path123206"
             transform="matrix(0.21820024,0,0,-0.21820024,-166.7022,-211.2587)" />
          <path
             d="m 920.27396,-2094.735 c 0,-8.15 -6.608,-14.757 -14.757,-14.757 -8.15,0 -14.757,6.607 -14.757,14.757 0,8.15 6.607,14.757 14.757,14.757 8.149,0 14.757,-6.607 14.757,-14.757"
             style="fill:#0f337a;fill-opacity:1;fill-rule:nonzero;stroke:none"
             id="path123210"
             transform="matrix(0.21820024,0,0,-0.21820024,-166.7022,-211.2587)" />
          <path
             d="m 557.72706,-2091.962 c 0,-9.681 -7.848,-17.53 -17.53,-17.53 -9.681,0 -17.531,7.849 -17.531,17.53 0,9.681 7.85,17.53 17.531,17.53 9.682,0 17.53,-7.849 17.53,-17.53"
             style="fill:#0f337a;fill-opacity:1;fill-rule:nonzero;stroke:none"
             id="path123214"
             transform="matrix(0.21820024,0,0,-0.21820024,-166.7022,-211.2587)" />
          <path
             d="m 741.15486,-2131.3688 -13.916,37.29 3.813,1.422 13.919,-37.288 z"
             style="fill:#2e2442;fill-opacity:1;fill-rule:nonzero;stroke:none"
             id="path123218"
             transform="matrix(0.21820024,0,0,-0.21820024,-166.7022,-211.2587)" />
          <path
             d="m 700.99856,-2058.6056 26.24,7.29 -1.195,4.952 -27.436,-5.888 z"
             style="fill:#f3cc25;fill-opacity:1;fill-rule:nonzero;stroke:none"
             id="path123222"
             transform="matrix(0.21820024,0,0,-0.21820024,-166.7022,-211.2587)" />
          <path
             d="m 731.96536,-2139.4777 27.146,2.156 -0.228,5.092 -28.057,-0.555 z"
             style="fill:#f3cc25;fill-opacity:1;fill-rule:nonzero;stroke:none"
             id="path123226"
             transform="matrix(0.21820024,0,0,-0.21820024,-166.7022,-211.2587)" />
          <path
             d="m 737.29546,-2073.3629 7.975,-40.369 c 0,0 -32.909,-11.535 -28.498,-15.267 4.41,-3.731 48.512,0 48.512,0 l -2.715,55.636 z"
             style="fill:#ffb38c;fill-opacity:1;fill-rule:nonzero;stroke:none"
             id="path123230"
             transform="matrix(0.21820024,0,0,-0.21820024,-166.7022,-211.2587)" />
          <path
             d="m 801.07276,-1907.983 c 0,0 -112.629,-47.494 -64.795,-168.264 h 45.46 l -9.161,55.636 c 0,0 106.522,71.92 84.133,119.753 -22.391,47.833 -39.013,3.393 -39.013,3.393 z"
             style="fill:#1233b2;fill-opacity:1;fill-rule:nonzero;stroke:none"
             id="path123234"
             transform="matrix(0.21820024,0,0,-0.21820024,-166.7022,-211.2587)" />
          <g
             id="g123250"
             transform="matrix(0.21820024,0,0,-0.21820024,-145.22683,377.68751)">
            <g
               clip-path="url(#clipPath123242)"
               opacity="0.399994"
               id="g123248">
              <g
                 transform="translate(754.6494,759.4829)"
                 id="g123246">
                <path
                   d="M 0,0 C -4.354,4.687 -10.668,11.714 -11.907,14.335 -13.83,18.413 -31.736,30.092 -33.47,29.722 -34.446,29.515 -49.52,27.731 -62.512,26.211 -66.981,23.626 -72.546,20.09 -78.534,15.538 -72.992,1.933 -58.424,-24.321 -25.911,-34.81 -15.533,-23.895 -6.04,-11.944 0,0"
                   style="fill:#141468;fill-opacity:1;fill-rule:nonzero;stroke:none"
                   id="path123244" />
              </g>
            </g>
          </g>
          <path
             d="m 749.59626,-1838.4386 c 0,0 -11.089,-14.96 -5.36,-26.266 4.792,-9.46 17.367,-5.151 24.805,-15.818 7.437,-10.667 22.026,7.652 18.802,11.044 -3.223,3.392 -24.427,22.389 -25.103,22.389 -0.679,0 -13.144,8.651 -13.144,8.651"
             style="fill:#091433;fill-opacity:1;fill-rule:nonzero;stroke:none"
             id="path123254"
             transform="matrix(0.21820024,0,0,-0.21820024,-166.7022,-211.2587)" />
          <path
             d="m 751.35506,-1805.5528 c 0,0 2.975,3.955 -2.541,20.59 0,0 -14.358,-3.021 -19.897,12.105 -3.937,10.767 -5.995,25.573 0.183,35.713 4.204,-5.169 17.137,-21.665 29.703,-19.204 13.2,2.582 14.538,-6.527 2.634,-11.977 -5.185,-2.375 4.097,-12.024 11.866,-7.225 -1.286,-8.708 8.047,-26.524 8.047,-26.524 0,0 -2.979,-17.881 -16.081,-19.602 -8.142,-1.073 -13.914,16.124 -13.914,16.124"
             style="fill:#ffb38c;fill-opacity:1;fill-rule:nonzero;stroke:none"
             id="path123258"
             transform="matrix(0.21820024,0,0,-0.21820024,-166.7022,-211.2587)" />
          <path
             d="m 734.65876,-1729.5504 c 0,0 17.806,10.631 39.488,-15.338 0,0 -3.216,30.406 -34,23.612 z"
             style="fill:#ffc9c9;fill-opacity:1;fill-rule:nonzero;stroke:none"
             id="path123262"
             transform="matrix(0.21820024,0,0,-0.21820024,-166.7022,-211.2587)" />
          <path
             d="m 762.08066,-1768.1359 c 0,-0.961 0.777,-1.737 1.735,-1.737 0.957,0 1.737,0.776 1.737,1.737 0,0.958 -0.78,1.734 -1.737,1.734 -0.958,0 -1.735,-0.776 -1.735,-1.734"
             style="fill:#ffe8cc;fill-opacity:1;fill-rule:nonzero;stroke:none"
             id="path123266"
             transform="matrix(0.21820024,0,0,-0.21820024,-166.7022,-211.2587)" />
          <path
             d="m 764.56496,-1762.8219 c -0.006,0 -0.016,10e-4 -0.021,10e-4 -0.125,0.011 -0.218,0.123 -0.206,0.249 0.036,0.42 -0.046,0.726 -0.248,0.907 -0.351,0.315 -0.978,0.193 -0.984,0.193 -0.114,-0.024 -0.222,0.038 -0.263,0.144 -0.036,0.105 0.006,0.224 0.105,0.279 0.595,0.332 0.944,0.733 1.038,1.191 0.138,0.652 -0.29,1.228 -0.296,1.234 -0.077,0.1 -0.057,0.244 0.042,0.32 0.101,0.077 0.242,0.059 0.319,-0.042 0.026,-0.029 0.561,-0.741 0.384,-1.601 -0.082,-0.402 -0.304,-0.764 -0.662,-1.081 0.213,-0.043 0.436,-0.129 0.62,-0.295 0.317,-0.282 0.451,-0.716 0.4,-1.291 -0.011,-0.118 -0.111,-0.208 -0.228,-0.208"
             style="fill:#00052a;fill-opacity:1;fill-rule:nonzero;stroke:none"
             id="path123270"
             transform="matrix(0.21820024,0,0,-0.21820024,-166.7022,-211.2587)" />
          <path
             d="m 719.34626,-1749.9689 c 3.539,-1.119 7.077,-2.237 10.612,-3.356 1.028,-0.325 2.314,-0.564 3.251,-1.033 2.323,-1.168 2.672,-3.822 1.914,-6.09 -0.065,-0.202 0.248,-0.302 0.316,-0.1 0.74,2.214 0.514,4.489 -1.372,6.023 -0.799,0.648 -1.852,0.831 -2.809,1.135 -3.937,1.245 -7.873,2.49 -11.81,3.735 -0.204,0.065 -0.303,-0.25 -0.102,-0.314"
             style="fill:#ffffff;fill-opacity:1;fill-rule:nonzero;stroke:none"
             id="path123274"
             transform="matrix(0.21820024,0,0,-0.21820024,-166.7022,-211.2587)" />
          <g
             id="g123290"
             transform="matrix(0.21820024,0,0,-0.21820024,-145.22683,377.68751)">
            <g
               clip-path="url(#clipPath123282)"
               opacity="0.220001"
               id="g123288">
              <g
                 transform="translate(656.2178,930.4795)"
                 id="g123286">
                <path
                   d="m 0,0 c -0.046,0.038 -0.083,0.08 -0.126,0.119 -0.096,-0.3 -0.189,-0.599 -0.285,-0.9 C -0.272,-0.52 -0.138,-0.259 0,0"
                   style="fill:#ffc9c9;fill-opacity:1;fill-rule:nonzero;stroke:none"
                   id="path123284" />
              </g>
            </g>
          </g>
          <path
             d="m 751.84526,-1763.8785 c 9.548,0.508 8.104,-7.252 0.066,-7.491 -7.797,-0.232 -8.766,7.028 -0.066,7.491"
             style="fill:#e58e67;fill-opacity:1;fill-rule:nonzero;stroke:none"
             id="path123294"
             transform="matrix(0.21820024,0,0,-0.21820024,-166.7022,-211.2587)" />
          <path
             d="m 728.87356,-1772.736 c 6.393,1.237 6.898,7.761 -1.877,7.292 -0.096,-0.01 -0.187,-0.012 -0.279,-0.02 0.598,-2.546 1.333,-4.999 2.156,-7.272"
             style="fill:#e58e67;fill-opacity:1;fill-rule:nonzero;stroke:none"
             id="path123298"
             transform="matrix(0.21820024,0,0,-0.21820024,-166.7022,-211.2587)" />
          <path
             d="m 745.35406,-1751.6188 c 0,0 3.995,3.893 9.497,0.586 0,0 -5.077,4.403 -9.497,-0.586"
             style="fill:#271d35;fill-opacity:1;fill-rule:nonzero;stroke:none"
             id="path123302"
             transform="matrix(0.21820024,0,0,-0.21820024,-166.7022,-211.2587)" />
          <path
             d="m 744.19386,-1749.525 c 0.848,-1.21 5.041,2.375 8.861,1.795 3.824,-0.579 5.144,-2.606 5.701,-2.374 0.557,0.231 -2.802,3.938 -7.843,3.764 -5.037,-0.173 -7.529,-2.027 -6.719,-3.185"
             style="fill:#271d35;fill-opacity:1;fill-rule:nonzero;stroke:none"
             id="path123306"
             transform="matrix(0.21820024,0,0,-0.21820024,-166.7022,-211.2587)" />
          <path
             d="m 734.06006,-1749.4684 c -0.756,-0.921 -0.641,-0.124 -3.478,-0.01 -1.386,0.058 -2.389,-0.288 -3.046,-0.653 0.156,0.479 0.331,0.946 0.515,1.407 4.037,1.818 6.753,0.162 6.009,-0.746"
             style="fill:#271d35;fill-opacity:1;fill-rule:nonzero;stroke:none"
             id="path123310"
             transform="matrix(0.21820024,0,0,-0.21820024,-166.7022,-211.2587)" />
          <path
             d="m 726.52786,-1753.2477 c 0,0 2.355,2.2 5.16,1.055 0,0 -3.863,1.885 -5.16,-1.055"
             style="fill:#271d35;fill-opacity:1;fill-rule:nonzero;stroke:none"
             id="path123314"
             transform="matrix(0.21820024,0,0,-0.21820024,-166.7022,-211.2587)" />
          <path
             d="m 756.43806,-1756.5001 c 0,0 -2.105,4.303 -6.104,4.013 -3.998,-0.29 -5.196,-0.961 -6.882,-3.666 0,0 -0.243,2.392 3.522,4.245 3.766,1.853 7.82,0.405 8.98,-1.043 1.158,-1.448 2.2,-0.927 2.722,-0.173 0,0 0.738,-2.118 -2.238,-3.376"
             style="fill:#271d35;fill-opacity:1;fill-rule:nonzero;stroke:none"
             id="path123318"
             transform="matrix(0.21820024,0,0,-0.21820024,-166.7022,-211.2587)" />
          <path
             d="m 734.69686,-1755.7291 c 0,0 -0.929,2.189 -3.882,1.962 -2.955,-0.227 -4.034,-2.085 -4.275,-2.487 l -0.012,-0.519 c 0,0 -1.853,0 -1.795,2.2 0,0 1.041,-0.753 1.969,0.406 0.928,1.158 5.565,3.362 7.995,-1.562"
             style="fill:#271d35;fill-opacity:1;fill-rule:nonzero;stroke:none"
             id="path123322"
             transform="matrix(0.21820024,0,0,-0.21820024,-166.7022,-211.2587)" />
          <g
             id="g123338"
             transform="matrix(0.21820024,0,0,-0.21820024,-145.22683,377.68751)">
            <g
               clip-path="url(#clipPath123330)"
               opacity="0.229996"
               id="g123336">
              <g
                 transform="translate(658.5156,938.5137)"
                 id="g123334">
                <path
                   d="m 0,0 c 0.102,2.857 -1.684,6.906 -6.832,7.084 -5.153,0.176 -6.909,-3.519 -6.909,-3.519 h -0.003 c 0.361,1.712 1.503,3.369 3.803,4.173 0.558,0.197 1.189,0.342 1.89,0.427 C -0.812,9.034 0.698,1.969 0,0"
                   style="fill:#090002;fill-opacity:1;fill-rule:nonzero;stroke:none"
                   id="path123332" />
              </g>
            </g>
          </g>
          <path
             d="m 751.75546,-1756.2135 c -0.155,-2.831 -4.242,-2.831 -4.394,0 -0.019,0.422 -0.681,0.425 -0.659,0 0.198,-3.678 5.513,-3.678 5.711,0 0.024,0.425 -0.637,0.422 -0.658,0"
             style="fill:#2e2442;fill-opacity:1;fill-rule:nonzero;stroke:none"
             id="path123342"
             transform="matrix(0.21820024,0,0,-0.21820024,-166.7022,-211.2587)" />
          <path
             d="m 740.75936,-1771.359 c -0.153,-2.831 -4.237,-2.831 -4.394,0 -0.021,0.423 -0.681,0.425 -0.657,0 0.197,-3.679 5.513,-3.679 5.712,0 0.022,0.425 -0.64,0.423 -0.661,0"
             style="fill:#2e2442;fill-opacity:1;fill-rule:nonzero;stroke:none"
             id="path123346"
             transform="matrix(0.21820024,0,0,-0.21820024,-166.7022,-211.2587)" />
          <path
             d="m 733.05526,-1756.2135 c -0.153,-2.831 -4.24,-2.831 -4.395,0 -0.022,0.422 -0.681,0.425 -0.659,0 0.2,-3.678 5.515,-3.678 5.712,0 0.025,0.425 -0.637,0.422 -0.658,0"
             style="fill:#2e2442;fill-opacity:1;fill-rule:nonzero;stroke:none"
             id="path123350"
             transform="matrix(0.21820024,0,0,-0.21820024,-166.7022,-211.2587)" />
          <g
             id="g123366"
             transform="matrix(0.21820024,0,0,-0.21820024,-145.22683,377.68751)">
            <g
               clip-path="url(#clipPath123358)"
               opacity="0.199997"
               id="g123364">
              <g
                 transform="translate(633.0527,949.3193)"
                 id="g123362">
                <path
                   d="M 0,0 -10.479,-11.435 -9.966,-12.078 1.312,0 Z"
                   style="fill:#ffffff;fill-opacity:1;fill-rule:nonzero;stroke:none"
                   id="path123360" />
              </g>
            </g>
          </g>
          <g
             id="g123382"
             transform="matrix(0.21820024,0,0,-0.21820024,-145.22683,377.68751)">
            <g
               clip-path="url(#clipPath123374)"
               opacity="0.199997"
               id="g123380">
              <g
                 transform="translate(636.4023,949.3193)"
                 id="g123378">
                <path
                   d="m 0,0 -11.951,-13.345 0.148,-0.125 c 0.176,-0.085 0.338,-0.203 0.476,-0.361 0.035,-0.047 0.08,-0.089 0.124,-0.132 0.013,-0.011 0.033,-0.022 0.052,-0.037 0.074,-0.042 0.143,-0.082 0.217,-0.117 0.002,0 0.005,0 0.005,-0.002 0.364,-0.139 0.714,-0.322 1.095,-0.402 0.035,-0.007 0.072,-0.018 0.107,-0.029 L 2.498,-0.384 2.192,0 Z"
                   style="fill:#ffffff;fill-opacity:1;fill-rule:nonzero;stroke:none"
                   id="path123376" />
              </g>
            </g>
          </g>
          <g
             id="g123398"
             transform="matrix(0.21820024,0,0,-0.21820024,-145.22683,377.68751)">
            <g
               clip-path="url(#clipPath123390)"
               opacity="0.199997"
               id="g123396">
              <g
                 transform="translate(654.0254,949.3193)"
                 id="g123394">
                <path
                   d="m 0,0 -10.918,-12.033 0.533,-0.678 L 1.365,0 Z"
                   style="fill:#ffffff;fill-opacity:1;fill-rule:nonzero;stroke:none"
                   id="path123392" />
              </g>
            </g>
          </g>
          <g
             id="g123414"
             transform="matrix(0.21820024,0,0,-0.21820024,-145.22683,377.68751)">
            <g
               clip-path="url(#clipPath123406)"
               opacity="0.199997"
               id="g123412">
              <g
                 transform="translate(657.5127,949.3193)"
                 id="g123410">
                <path
                   d="m 0,0 -12.448,-14.044 0.15,-0.131 c 0.186,-0.089 0.357,-0.213 0.496,-0.38 0.039,-0.049 0.086,-0.095 0.13,-0.14 0.017,-0.012 0.034,-0.023 0.058,-0.038 0.072,-0.044 0.148,-0.084 0.224,-0.122 0.003,-0.002 0.003,-0.004 0.006,-0.004 0.374,-0.147 0.742,-0.339 1.139,-0.422 0.039,-0.008 0.074,-0.019 0.111,-0.029 L 2.602,-0.403 2.281,0 Z"
                   style="fill:#ffffff;fill-opacity:1;fill-rule:nonzero;stroke:none"
                   id="path123408" />
              </g>
            </g>
          </g>
          <path
             d="m 719.58256,-1750.1227 c 0,0.127 -0.029,0.196 -0.051,0.233 0.045,-0.022 0.139,-0.044 0.317,-0.044 h 1.758 6.212 9.359 v -5.365 c 0,-2.817 -0.849,-5.549 -3.109,-7.396 -2.857,-2.332 -7.045,-2.838 -10.234,-0.822 -2.723,1.721 -4.252,4.56 -4.252,7.773 z m -0.216,-7.437 c 0.822,-4.248 4.571,-7.667 9.014,-7.573 4.318,0.093 8.353,3.174 9.014,7.573 0.381,2.544 0.135,5.238 0.135,7.802 0,0.049 -0.017,0.085 -0.042,0.113 -0.003,0 -0.005,0.01 -0.009,0.01 -0.003,0 -0.007,0.01 -0.013,0.01 -0.028,0.026 -0.063,0.043 -0.112,0.043 h -17.946 c -0.098,0 -0.179,-0.079 -0.179,-0.175 0,-2.521 -0.343,-5.312 0.138,-7.802"
             style="fill:#ffffff;fill-opacity:1;fill-rule:nonzero;stroke:none"
             id="path123418"
             transform="matrix(0.21820024,0,0,-0.21820024,-166.7022,-211.2587)" />
          <path
             d="m 759.59136,-1749.7574 c 0,-2.741 0.251,-5.607 -0.123,-8.33 -0.669,-4.809 -5.054,-8.219 -9.773,-8.313 -4.704,-0.093 -8.718,3.454 -9.704,7.939 -0.321,1.451 -0.194,3.022 -0.194,4.496 v 4.208 c 0,0.096 0.076,0.175 0.174,0.175 h 19.447 c 0.226,0 0.226,-0.351 0,-0.351 h -19.361 c -0.188,0 0.09,0.294 0.09,0.044 v -0.922 -3.424 c 0,-2.416 0.013,-4.654 1.183,-6.871 1.696,-3.208 5.201,-5.004 8.756,-4.933 3.605,0.07 6.774,2.407 8.304,5.589 0.907,1.887 0.851,3.921 0.851,5.953 v 4.74 c 0,0.227 0.35,0.227 0.35,0"
             style="fill:#ffffff;fill-opacity:1;fill-rule:nonzero;stroke:none"
             id="path123422"
             transform="matrix(0.21820024,0,0,-0.21820024,-166.7022,-211.2587)" />
          <path
             d="m 719.53176,-1749.8898 c -0.068,0.027 -0.035,0.049 0,0"
             style="fill:#ffffff;fill-opacity:1;fill-rule:nonzero;stroke:none"
             id="path123426"
             transform="matrix(0.21820024,0,0,-0.21820024,-166.7022,-211.2587)" />
          <path
             d="m 737.48786,-1749.6451 c -0.003,0 -0.005,0.01 -0.009,0.011 0.004,0 0.006,-0.01 0.009,-0.011"
             style="fill:#ffffff;fill-opacity:1;fill-rule:nonzero;stroke:none"
             id="path123430"
             transform="matrix(0.21820024,0,0,-0.21820024,-166.7022,-211.2587)" />
          <path
             d="m 737.47906,-1749.6344 c -0.004,0 -0.008,0.01 -0.014,0.01 0.006,0 0.01,-0.01 0.014,-0.01"
             style="fill:#ffffff;fill-opacity:1;fill-rule:nonzero;stroke:none"
             id="path123434"
             transform="matrix(0.21820024,0,0,-0.21820024,-166.7022,-211.2587)" />
          <path
             d="m 737.46536,-1749.6256 c -0.1,0.077 -0.288,0.033 -0.288,-0.132 v -0.176 h -9.358 -1.193 c 0.011,0.119 0.019,0.234 0.028,0.351 h 10.699 c 0.05,0 0.085,-0.017 0.112,-0.043"
             style="fill:#ffffff;fill-opacity:1;fill-rule:nonzero;stroke:none"
             id="path123438"
             transform="matrix(0.21820024,0,0,-0.21820024,-166.7022,-211.2587)" />
          <path
             d="m 734.06886,-1762.6949 c 2.26,1.848 3.108,4.579 3.108,7.396 v 5.366 h 0.176 c 0.168,0 0.212,0.186 0.135,0.288 0.024,-0.028 0.042,-0.064 0.042,-0.112 0,-2.564 0.246,-5.259 -0.135,-7.802 -0.661,-4.4 -4.696,-7.48 -9.014,-7.574 -1.015,-0.02 -1.992,0.143 -2.907,0.456 0.033,0.112 0.066,0.228 0.094,0.343 2.866,-0.964 6.14,-0.29 8.501,1.639"
             style="fill:#ffffff;fill-opacity:1;fill-rule:nonzero;stroke:none"
             id="path123442"
             transform="matrix(0.21820024,0,0,-0.21820024,-166.7022,-211.2587)" />
          <path
             d="m 737.46536,-1749.6256 c 0.006,0 0.01,0 0.014,-0.01 0.004,0 0.006,-0.01 0.008,-0.011 0.078,-0.101 0.034,-0.288 -0.134,-0.288 h -0.176 v 0.176 c 0,0.165 0.188,0.209 0.288,0.132"
             style="fill:#ffffff;fill-opacity:1;fill-rule:nonzero;stroke:none"
             id="path123446"
             transform="matrix(0.21820024,0,0,-0.21820024,-166.7022,-211.2587)" />
          <path
             d="m 739.97126,-1749.9332 h -2.816 c -0.228,0 -0.228,0.351 0,0.351 h 2.816 c 0.227,0 0.227,-0.351 0,-0.351"
             style="fill:#ffffff;fill-opacity:1;fill-rule:nonzero;stroke:none"
             id="path123450"
             transform="matrix(0.21820024,0,0,-0.21820024,-166.7022,-211.2587)" />
          <path
             d="m 739.97126,-1751.4884 h -2.618 c -0.226,0 -0.226,0.352 0,0.352 h 2.618 c 0.227,0 0.227,-0.352 0,-0.352"
             style="fill:#ffffff;fill-opacity:1;fill-rule:nonzero;stroke:none"
             id="path123454"
             transform="matrix(0.21820024,0,0,-0.21820024,-166.7022,-211.2587)" />
          <g
             id="g123470"
             transform="matrix(0.21820024,0,0,-0.21820024,-145.22683,377.68751)">
            <g
               clip-path="url(#clipPath123462)"
               opacity="0.220001"
               id="g123468">
              <g
                 transform="translate(641.3457,939.708)"
                 id="g123466">
                <path
                   d="m 0,0 c 0,0 0.336,-4.75 -2.043,-5.927 -2.381,-1.176 -3.537,1.025 -3.015,2.211 0.52,1.187 2.294,1.371 2.294,1.371 l 1.235,0.493 0.476,0.313 z"
                   style="fill:#8e0000;fill-opacity:1;fill-rule:nonzero;stroke:none"
                   id="path123464" />
              </g>
            </g>
          </g>
          <path
             d="m 737.34816,-1763.8019 c -1.836,-0.109 -2.706,1.627 -2.352,2.737 0.098,0.321 0.303,0.592 0.614,0.745 1.393,0.695 1.6,-1.252 2.506,-0.626 0.37,0.257 0.064,1.896 0.425,2.577 0.118,0.227 0.309,0.347 0.619,0.278 1.252,-0.28 0.557,-5.571 -1.812,-5.711"
             style="fill:#e38939;fill-opacity:1;fill-rule:nonzero;stroke:none"
             id="path123474"
             transform="matrix(0.21820024,0,0,-0.21820024,-166.7022,-211.2587)" />
          <g
             id="g123490"
             transform="matrix(0.21820024,0,0,-0.21820024,-145.22683,377.68751)">
            <g
               clip-path="url(#clipPath123482)"
               opacity="0.210007"
               id="g123488">
              <g
                 transform="translate(638.9277,935.3071)"
                 id="g123486">
                <path
                   d="M 0,0 C -1.836,-0.109 -2.706,1.627 -2.352,2.737 -2.235,2.23 -2.071,0.78 -0.531,0.856 1.008,0.936 1.612,2.096 1.69,4.197 1.768,6.179 1.252,5.517 1.193,5.433 1.311,5.66 1.502,5.78 1.812,5.711 3.064,5.431 2.369,0.14 0,0"
                   style="fill:#680101;fill-opacity:1;fill-rule:nonzero;stroke:none"
                   id="path123484" />
              </g>
            </g>
          </g>
          <g
             id="g123506"
             transform="matrix(0.21820024,0,0,-0.21820024,-145.22683,377.68751)">
            <g
               clip-path="url(#clipPath123498)"
               opacity="0.389999"
               id="g123504">
              <g
                 transform="translate(637.3262,938.6719)"
                 id="g123502">
                <path
                   d="M 0,0 C 0.38,0.196 0.873,-0.128 0.675,-0.422 0.477,-0.713 0.039,-0.951 -0.275,-0.731 -0.594,-0.515 -0.518,-0.264 0,0"
                   style="fill:#ffffff;fill-opacity:1;fill-rule:nonzero;stroke:none"
                   id="path123500" />
              </g>
            </g>
          </g>
          <path
             d="m 736.46736,-1745.0568 c 0,0 6.725,-11.419 20.621,-11.514 0,0 8.783,9.31 8.983,9.657 0.198,0.347 0.325,2.69 -2.252,3.471 -2.581,0.78 -9.21,1.996 -11.406,2.429 -2.194,0.434 -5.854,0.955 -7.059,1.042 -1.209,0.086 -8.887,-5.085 -8.887,-5.085"
             style="fill:#091433;fill-opacity:1;fill-rule:nonzero;stroke:none"
             id="path123510"
             transform="matrix(0.21820024,0,0,-0.21820024,-166.7022,-211.2587)" />
          <path
             d="m 711.17436,-1833.0099 18.32,-33.246 20.609,11.54 c 0,0 21.795,-90.261 94.734,-119.096 0,0 47.831,20.022 66.489,56.999 0,0 -57.946,9.72 -89.218,83.803 -14.012,33.194 -36.638,44.44 -51.905,42.405 -15.264,-2.036 -59.029,-42.405 -59.029,-42.405"
             style="fill:#f7abba;fill-opacity:1;fill-rule:nonzero;stroke:none"
             id="path123514"
             transform="matrix(0.21820024,0,0,-0.21820024,-166.7022,-211.2587)" />
          <path
             d="m 765.44976,-1758.8551 c -0.227,-1.754 -0.454,-3.508 -0.678,-5.261 -0.656,-0.505 -1.266,-0.304 -1.39,0.462 0.195,1.527 0.389,3.054 0.581,4.587 0.285,0.645 0.689,0.705 1.487,0.212"
             style="fill:#adadad;fill-opacity:1;fill-rule:evenodd;stroke:none"
             id="path123518"
             transform="matrix(0.21820024,0,0,-0.21820024,-166.7022,-211.2587)" />
          <path
             d="m 763.96246,-1759.0675 c -0.191,-1.532 -0.386,-3.06 -0.581,-4.587 -1.011,1.359 -0.734,3.544 0.581,4.587"
             style="fill:#5d5d5d;fill-opacity:1;fill-rule:evenodd;stroke:none"
             id="path123522"
             transform="matrix(0.21820024,0,0,-0.21820024,-166.7022,-211.2587)" />
          <path
             d="m 764.79646,-1771.4986 0.66,2.369 c 0.049,-0.092 0.117,-0.17 0.208,-0.217 0.282,-0.142 0.567,-0.231 0.874,-0.115 0.032,0.019 0.067,0.044 0.096,0.062 l -0.682,-2.453 c -0.059,-0.206 -0.144,-0.376 -0.33,-0.442 -0.05,-0.016 -0.046,-0.027 -0.088,-0.056 -0.29,0.348 -0.202,0.026 -0.261,0.044 -0.135,0.046 -0.282,0.141 -0.362,0.259 -0.005,0.02 -0.039,0.043 -0.05,0.062 -0.077,0.15 -0.11,0.324 -0.065,0.487"
             style="fill:#adadad;fill-opacity:1;fill-rule:nonzero;stroke:none"
             id="path123526"
             transform="matrix(0.21820024,0,0,-0.21820024,-166.7022,-211.2587)" />
          <path
             d="m 765.75836,-1765.0172 c 0.104,0.605 0,0.914 -0.638,0.852 -0.116,-0.011 -0.234,0.032 -0.348,0.049 0.223,1.753 0.451,3.507 0.677,5.261 1.843,-0.252 2.69,-1.408 2.455,-3.329 -0.272,-2.089 -0.541,-4.176 -0.792,-6.26 -0.048,-0.404 -0.176,-0.725 -0.478,-0.955 -0.029,-0.018 -0.064,-0.044 -0.096,-0.062 -0.307,-0.117 -0.592,-0.027 -0.874,0.114 -0.091,0.048 -0.159,0.126 -0.208,0.218 -0.14,0.254 -0.158,0.641 -0.112,0.979 0.149,1.045 0.239,2.097 0.414,3.133"
             style="fill:#e4e4e4;fill-opacity:1;fill-rule:nonzero;stroke:none"
             id="path123530"
             transform="matrix(0.21820024,0,0,-0.21820024,-166.7022,-211.2587)" />
          <path
             d="m 726.91266,-1774.5768 c 0.311,0.016 0.246,0.025 0.308,0.056 0.147,0.064 0.321,0.186 0.379,0.345 0.011,0.023 0.045,0.052 0.049,0.077 2.51,-5.377 8.33,-14.254 19.136,-13.62 12.007,0.712 16.488,10.121 18.097,15.684 0.072,-0.118 0.253,-0.23 0.385,-0.27 0.066,-0.019 -0.022,0.302 0.268,-0.046 0.042,0.029 0.038,0.04 0.088,0.056 -1.665,-5.754 -6.335,-15.444 -18.753,-16.178 -11.108,-0.654 -17.227,8.343 -19.855,13.896 0.015,0 -0.094,-0.01 -0.094,-0.01 z"
             style="fill:#e4e4e4;fill-opacity:1;fill-rule:nonzero;stroke:none"
             id="path123534"
             transform="matrix(0.21820024,0,0,-0.21820024,-166.7022,-211.2587)" />
          <path
             d="m 725.70566,-1771.8712 c 0.099,-0.024 0.189,-0.026 0.277,-0.019 0.209,0.02 0.399,0.112 0.58,0.233 0.028,0.021 0.045,0.043 0.067,0.07 0.047,0.046 0.093,0.103 0.121,0.174 l 0.906,-2.28 c 0.051,-0.127 0.055,-0.266 0.023,-0.401 -0.007,-0.027 -0.011,-0.056 -0.023,-0.079 -0.062,-0.159 -0.176,-0.277 -0.322,-0.344 -0.065,-0.026 -0.131,-0.043 -0.196,-0.047 -0.009,0 -0.017,0 -0.028,0 -0.241,-0.01 -0.469,0.147 -0.559,0.381 l -0.946,2.362 c 0.037,-0.02 0.069,-0.039 0.1,-0.053"
             style="fill:#adadad;fill-opacity:1;fill-rule:nonzero;stroke:none"
             id="path123538"
             transform="matrix(0.21820024,0,0,-0.21820024,-166.7022,-211.2587)" />
          <path
             d="m 747.55716,-1788.2384 c 0.132,-0.6 0.704,-0.979 1.278,-0.84 l 1.045,0.184 c 0.569,0.141 0.927,0.746 0.796,1.344 -0.131,0.602 -0.699,0.974 -1.272,0.839 l -1.046,-0.186 c -0.573,-0.141 -0.934,-0.74 -0.801,-1.341"
             style="fill:#e4e4e4;fill-opacity:1;fill-rule:evenodd;stroke:none"
             id="path123542"
             transform="matrix(0.21820024,0,0,-0.21820024,-166.7022,-211.2587)" />
          <path
             d="m 766.72616,-1761.0338 c -0.014,-0.201 0.135,-0.381 0.326,-0.4 0.202,-0.013 0.368,0.141 0.384,0.35 0.012,0.202 -0.137,0.382 -0.326,0.395 -0.199,0.015 -0.373,-0.138 -0.384,-0.345"
             style="fill:#ffffff;fill-opacity:1;fill-rule:nonzero;stroke:none"
             id="path123546"
             transform="matrix(0.21820024,0,0,-0.21820024,-166.7022,-211.2587)" />
          <path
             d="m 767.20756,-1763.5616 c -0.019,-0.205 -0.188,-0.357 -0.386,-0.344 -0.192,0.014 -0.338,0.194 -0.325,0.396 l 0.092,1.366 c 0.014,0.206 0.189,0.36 0.384,0.345 0.194,-0.014 0.34,-0.196 0.324,-0.4 z"
             style="fill:#ffffff;fill-opacity:1;fill-rule:nonzero;stroke:none"
             id="path123550"
             transform="matrix(0.21820024,0,0,-0.21820024,-166.7022,-211.2587)" />
          <path
             d="m 831.94096,-1825.9327 c 0,0 -9.037,17.114 -20.899,21.221 -11.863,4.109 -24.225,-2.918 -19.583,-12.796 4.641,-9.874 16.408,-15.085 16.408,-15.085 l 17.538,0.82 z"
             style="fill:#0f1b43;fill-opacity:1;fill-rule:nonzero;stroke:none"
             id="path123554"
             transform="matrix(0.21820024,0,0,-0.21820024,-166.7022,-211.2587)" />
          <path
             d="m 748.73006,-1805.1315 c 0,0 5.589,9.583 16.717,8.59 0,0 -9.755,-0.453 -16.717,-8.59"
             style="fill:#ffffff;fill-opacity:1;fill-rule:nonzero;stroke:none"
             id="path123558"
             transform="matrix(0.21820024,0,0,-0.21820024,-166.7022,-211.2587)" />
          <path
             d="m 771.63526,-1898.2599 c 0,0 39.355,-58.52 70.109,-64.188 30.755,-5.667 -48.208,11.905 -70.109,64.188"
             style="fill:#ffffff;fill-opacity:1;fill-rule:nonzero;stroke:none"
             id="path123562"
             transform="matrix(0.21820024,0,0,-0.21820024,-166.7022,-211.2587)" />
          <path
             d="m 904.11186,-1919.9723 c 0,0 -15.521,-12.827 -9.488,-11.786 6.034,1.046 15.929,17.521 9.488,11.786"
             style="fill:#ffffff;fill-opacity:1;fill-rule:nonzero;stroke:none"
             id="path123566"
             transform="matrix(0.21820024,0,0,-0.21820024,-166.7022,-211.2587)" />
          <path
             d="m 890.04936,-1935.5665 c 0,0 4.932,-1.284 2.01,-3.06 -2.921,-1.773 -5.974,5.201 -2.01,3.06"
             style="fill:#ffffff;fill-opacity:1;fill-rule:nonzero;stroke:none"
             id="path123570"
             transform="matrix(0.21820024,0,0,-0.21820024,-166.7022,-211.2587)" />
          <g
             id="g123586"
             transform="matrix(0.21820024,0,0,-0.21820024,-145.22683,377.68751)">
            <g
               clip-path="url(#clipPath123578)"
               id="g123584">
              <g
                 transform="translate(692.4854,886.4707)"
                 id="g123582">
                <path
                   d="m 0,0 c 0,0 -1.646,-8.669 7.33,-27.862 8.979,-19.194 11.409,-20.817 12.657,-28.484 1.248,-7.67 15.269,-40.795 28.733,-37.392 12.332,3.115 12.509,13.571 11.492,24.188 -1.016,10.617 -28.915,42.358 -29.495,42.852 C 30.134,-26.203 10.463,-7.812 9.805,-7.802 9.146,-7.793 0,0 0,0"
                   style="fill:#e0e0e0;fill-opacity:1;fill-rule:nonzero;stroke:none"
                   id="path123580" />
              </g>
            </g>
          </g>
          <path
             d="m 791.45856,-1817.5074 c 0,0 36.694,-78.265 40.313,-83.883 3.623,-5.618 23.965,2.07 28.012,23.831 4.052,21.763 -7.324,43.344 -25.097,54.659 -17.772,11.318 -33.837,13.254 -43.228,5.393"
             style="fill:#fe5e7d;fill-opacity:1;fill-rule:nonzero;stroke:none"
             id="path123590"
             transform="matrix(0.21820024,0,0,-0.21820024,-166.7022,-211.2587)" />
          <path
             d="m 858.68606,-1855.0934 c -10.8,2.06 -20.764,-4.558 -16.523,-13.583 4.101,-8.727 13.754,-13.805 15.945,-14.871 0.684,1.873 1.281,3.842 1.676,5.988 1.426,7.661 0.904,15.29 -1.098,22.466"
             style="fill:#0f1b43;fill-opacity:1;fill-rule:nonzero;stroke:none"
             id="path123594"
             transform="matrix(0.21820024,0,0,-0.21820024,-166.7022,-211.2587)" />
          <path
             d="m 813.71836,-1816.0177 c 0,0 18.229,-3.848 18.476,-7.599 0.244,-3.753 -28.48,10.267 -18.476,7.599"
             style="fill:#f7abba;fill-opacity:1;fill-rule:nonzero;stroke:none"
             id="path123598"
             transform="matrix(0.21820024,0,0,-0.21820024,-166.7022,-211.2587)" />
          <path
             d="m 836.18906,-1824.8444 c 0.354,-0.551 0.168,-1.304 -0.417,-1.682 -0.586,-0.376 -1.349,-0.235 -1.703,0.316 -0.355,0.552 -0.168,1.304 0.418,1.682 0.583,0.376 1.345,0.235 1.702,-0.316"
             style="fill:#f7abba;fill-opacity:1;fill-rule:nonzero;stroke:none"
             id="path123602"
             transform="matrix(0.21820024,0,0,-0.21820024,-166.7022,-211.2587)" />
          <path
             d="m 818.49366,-1901.4689 c -20.671,0 -36.992,10.027 -47.753,19.426 -14.176,12.383 -21.997,26.39 -22.074,26.531 l 1.781,0.984 c 0.077,-0.137 7.757,-13.876 21.677,-26.022 12.774,-11.146 33.596,-23.204 60.251,-17.349 l 0.436,-1.988 c -4.974,-1.092 -9.753,-1.582 -14.318,-1.582"
             style="fill:#fe5e7d;fill-opacity:1;fill-rule:nonzero;stroke:none"
             id="path123606"
             transform="matrix(0.21820024,0,0,-0.21820024,-166.7022,-211.2587)" />
          <path
             d="m 783.63916,-1807.4508 c -0.06,0.106 -5.839,10.766 -15.256,12.465 -5.264,0.95 -10.64,0.291 -16.181,-4.609 l -1.917,-1.372 c 6.04,5.337 12.568,9.054 18.471,7.984 10.393,-1.885 16.426,-13.04 16.679,-13.513 z"
             style="fill:#fe5e7d;fill-opacity:1;fill-rule:nonzero;stroke:none"
             id="path123610"
             transform="matrix(0.21820024,0,0,-0.21820024,-166.7022,-211.2587)" />
          <path
             d="m 774.16166,-1783.9337 c 0,0 6.559,-24.838 14.362,-28.816 7.799,-3.976 18.318,-2.789 22.727,-8.217 4.41,-5.428 12.038,-2.716 13.482,8.989 1.446,11.704 7.297,15.945 9.12,16.453 1.823,0.509 -24.636,4.87 -25.317,5.149 -0.677,0.279 -4.748,-0.618 -5.427,0 -0.678,0.618 -28.947,6.442 -28.947,6.442"
             style="fill:#091433;fill-opacity:1;fill-rule:nonzero;stroke:none"
             id="path123614"
             transform="matrix(0.21820024,0,0,-0.21820024,-166.7022,-211.2587)" />
          <path
             d="m 749.11776,-1787.8946 c 0,0 26.124,-151.167 57.271,-155.158 31.145,-3.99 8.055,48.949 2.483,64.89 -5.572,15.942 -2.025,27.555 8.979,16.079"
             style="fill:none;stroke:#e4e4e4;stroke-width:1;stroke-linecap:butt;stroke-linejoin:miter;stroke-miterlimit:10;stroke-dasharray:none;stroke-opacity:1"
             id="path123618"
             transform="matrix(0.21820024,0,0,-0.21820024,-166.7022,-211.2587)" />
          <path
             d="m 845.18416,-1883.8321 -8.527,-7.604 c -1.992,-1.777 -5.056,-1.601 -6.832,0.393 l -16.736,18.764 c -1.774,1.989 -1.6,5.055 0.393,6.833 l 8.527,7.605 c 1.994,1.778 5.057,1.601 6.835,-0.39 l 16.733,-18.766 c 1.777,-1.992 1.601,-5.057 -0.393,-6.835"
             style="fill:#090636;fill-opacity:1;fill-rule:nonzero;stroke:none"
             id="path123622"
             transform="matrix(0.21820024,0,0,-0.21820024,-166.7022,-211.2587)" />
          <path
             d="m 823.08256,-1859.0465 c 1.327,1.186 3.373,1.069 4.557,-0.261 l 16.734,-18.762 c 1.186,-1.328 1.067,-3.375 -0.26,-4.557 l -8.53,-7.604 c -1.327,-1.188 -3.37,-1.069 -4.556,0.258 l -16.731,18.766 c -1.187,1.328 -1.068,3.37 0.259,4.555 z"
             style="fill:#003057;fill-opacity:1;fill-rule:nonzero;stroke:none"
             id="path123626"
             transform="matrix(0.21820024,0,0,-0.21820024,-166.7022,-211.2587)" />
          <path
             d="m 826.48686,-1867.9122 c 0.866,-0.971 0.783,-2.458 -0.187,-3.322 -0.969,-0.865 -2.461,-0.78 -3.325,0.189 -0.863,0.967 -0.779,2.457 0.195,3.322 0.965,0.865 2.455,0.78 3.317,-0.189"
             style="fill:#ffffff;fill-opacity:1;fill-rule:nonzero;stroke:none"
             id="path123630"
             transform="matrix(0.21820024,0,0,-0.21820024,-166.7022,-211.2587)" />
          <path
             d="m 835.66846,-1866.0284 0.145,0.126 c 0.237,0.21 0.599,0.19 0.812,-0.047 l 2.771,-3.11 c 0.213,-0.236 0.194,-0.6 -0.045,-0.813 l -0.144,-0.129 c -0.234,-0.208 -0.601,-0.19 -0.812,0.048 l -2.773,3.11 c -0.21,0.236 -0.189,0.602 0.046,0.815"
             style="fill:#090636;fill-opacity:1;fill-rule:nonzero;stroke:none"
             id="path123634"
             transform="matrix(0.21820024,0,0,-0.21820024,-166.7022,-211.2587)" />
          <path
             d="m 832.78376,-1862.7975 0.147,0.128 c 0.235,0.211 0.602,0.19 0.81,-0.047 l 1.23,-1.377 c 0.207,-0.236 0.189,-0.602 -0.045,-0.812 l -0.145,-0.126 c -0.239,-0.214 -0.606,-0.192 -0.813,0.042 l -1.23,1.38 c -0.21,0.237 -0.186,0.601 0.046,0.812"
             style="fill:#090636;fill-opacity:1;fill-rule:nonzero;stroke:none"
             id="path123638"
             transform="matrix(0.21820024,0,0,-0.21820024,-166.7022,-211.2587)" />
          <path
             d="m 829.91066,-1859.5738 0.142,0.127 c 0.24,0.21 0.605,0.191 0.816,-0.045 l 1.228,-1.379 c 0.21,-0.232 0.187,-0.601 -0.045,-0.811 l -0.147,-0.13 c -0.234,-0.208 -0.601,-0.188 -0.81,0.049 l -1.229,1.376 c -0.211,0.236 -0.192,0.601 0.045,0.813"
             style="fill:#090636;fill-opacity:1;fill-rule:nonzero;stroke:none"
             id="path123642"
             transform="matrix(0.21820024,0,0,-0.21820024,-166.7022,-211.2587)" />
          <path
             d="m 823.37066,-1885.3644 c 0,0 13.974,6.3 17.092,17.897 0,0 13.241,-15.382 9.357,-21.42 -3.887,-6.038 -14.658,-12.328 -15.113,-12.13 -0.453,0.196 -0.605,1.104 -3.108,2.884 -2.504,1.778 -8.228,12.769 -8.228,12.769"
             style="fill:#fe5e7d;fill-opacity:1;fill-rule:nonzero;stroke:none"
             id="path123646"
             transform="matrix(0.21820024,0,0,-0.21820024,-166.7022,-211.2587)" />
          <path
             d="m 737.00156,-2093.3673 c 0,-4.339 -3.52,-7.856 -7.856,-7.856 -4.339,0 -7.856,3.517 -7.856,7.856 0,4.338 3.517,7.854 7.856,7.854 4.336,0 7.856,-3.516 7.856,-7.854"
             style="fill:#669df4;fill-opacity:1;fill-rule:nonzero;stroke:none"
             id="path123650"
             transform="matrix(0.21820024,0,0,-0.21820024,-166.7022,-211.2587)" />
          <path
             d="m 744.97126,-1963.4645 c 0,0 -23.955,-43.5 -14.814,-81.769 0,0 -11.959,38.342 14.814,81.769"
             style="fill:#7066f7;fill-opacity:1;fill-rule:nonzero;stroke:none"
             id="path123654"
             transform="matrix(0.21820024,0,0,-0.21820024,-166.7022,-211.2587)" />
          <path
             d="m 765.19876,-2127.2477 -2.489,51.001 h -24.844 l 0.43,-2.182 c 5.691,0.027 15.93,-0.997 17.811,-8.519 2.254,-9.016 1.576,-38.95 6.868,-45.361 3.522,0.592 5.284,1.618 5.023,3.396 -0.115,0.792 -1.188,1.321 -2.799,1.665"
             style="fill:#ef966f;fill-opacity:1;fill-rule:nonzero;stroke:none"
             id="path123658"
             transform="matrix(0.21820024,0,0,-0.21820024,-166.7022,-211.2587)" />
          <path
             d="m 734.11576,-2117.9713 c 0,0 1.824,-8.694 11.238,-9.331 0,0 22.095,2.164 22.644,-1.61 0.552,-3.775 -7.888,-4.177 -23.28,-4.177 -15.394,0 -34.856,-2.162 -30.532,5.66 4.325,7.823 18.328,12.668 19.782,9.458"
             style="fill:#102492;fill-opacity:1;fill-rule:nonzero;stroke:none"
             id="path123662"
             transform="matrix(0.21820024,0,0,-0.21820024,-166.7022,-211.2587)" />
          <path
             d="m 274.20656,-1906.3685 c 3.466,1.762 9.41,5.203 14.975,10.43 8.533,8.015 12.932,17.193 12.932,17.193 0,0 -9.435,-3.818 -17.968,-11.834 -6.517,-6.122 -10.621,-12.919 -12.197,-15.789 z"
             style="fill:#66b48c;fill-opacity:1;fill-rule:nonzero;stroke:none"
             id="path124900"
             transform="matrix(0.21820024,0,0,-0.21820024,-166.7022,-211.2587)" />
          <path
             d="m 272.14506,-1906.3685 c 2.154,2.258 7.529,8.342 11.452,16.615 5.017,10.578 5.762,20.73 5.762,20.73 0,0 -7.389,-7 -12.405,-17.578 -4.1,-8.644 -5.345,-16.999 -5.664,-19.767 z"
             style="fill:#66b48c;fill-opacity:1;fill-rule:nonzero;stroke:none"
             id="path124904"
             transform="matrix(0.21820024,0,0,-0.21820024,-166.7022,-211.2587)" />
          <path
             d="m 269.27886,-1906.3685 h 0.972 c 0.141,3.061 0.212,11.238 -2.295,20.125 -3.178,11.268 -9.293,19.403 -9.293,19.403 0,0 -0.963,-10.132 2.216,-21.399 2.433,-8.632 6.588,-15.422 8.4,-18.129"
             style="fill:#66b48c;fill-opacity:1;fill-rule:nonzero;stroke:none"
             id="path124908"
             transform="matrix(0.21820024,0,0,-0.21820024,-166.7022,-211.2587)" />
          <path
             d="m 269.07376,-1906.3685 h 1.293 c -0.945,2.817 -3.856,10.557 -9.49,18.016 -7.058,9.341 -15.713,14.698 -15.713,14.698 0,0 2.786,-9.79 9.846,-19.13 5.18,-6.858 11.217,-11.564 14.064,-13.584"
             style="fill:#66b48c;fill-opacity:1;fill-rule:nonzero;stroke:none"
             id="path124912"
             transform="matrix(0.21820024,0,0,-0.21820024,-166.7022,-211.2587)" />
          <path
             d="m 261.34626,-1906.3685 h 8.239 c -2.703,2.32 -8.652,6.968 -16.427,10.309 -10.756,4.623 -20.927,4.992 -20.927,4.992 0,0 7.267,-7.126 18.023,-11.748 3.933,-1.691 7.784,-2.81 11.092,-3.553"
             style="fill:#66b48c;fill-opacity:1;fill-rule:nonzero;stroke:none"
             id="path124916"
             transform="matrix(0.21820024,0,0,-0.21820024,-166.7022,-211.2587)" />
          <path
             d="m 271.55716,-1906.3685 c 1.142,3.22 3.414,10.641 3.687,19.357 0.366,11.703 -3.013,21.303 -3.013,21.303 0,0 -3.972,-9.371 -4.337,-21.073 -0.274,-8.748 1.545,-16.321 2.48,-19.587 z"
             style="fill:#66b48c;fill-opacity:1;fill-rule:nonzero;stroke:none"
             id="path124920"
             transform="matrix(0.21820024,0,0,-0.21820024,-166.7022,-211.2587)" />
          <path
             d="m 280.05616,-1906.3685 c 3.455,0.674 7.567,1.748 11.784,3.466 10.842,4.416 18.244,11.403 18.244,11.403 0,0 -10.175,-0.176 -21.017,-4.593 -8.178,-3.331 -14.397,-8.121 -16.96,-10.276 z"
             style="fill:#66b48c;fill-opacity:1;fill-rule:nonzero;stroke:none"
             id="path124924"
             transform="matrix(0.21820024,0,0,-0.21820024,-166.7022,-211.2587)" />
          <path
             d="m 999.51628,-2263.0708 c 3.46602,1.762 9.41002,5.203 14.97502,10.43 8.533,8.015 12.932,17.193 12.932,17.193 0,0 -9.435,-3.818 -17.968,-11.834 -6.517,-6.122 -10.62102,-12.919 -12.19702,-15.789 z"
             style="fill:#97cbc1;fill-opacity:1;fill-rule:nonzero;stroke:none"
             id="path124928"
             transform="matrix(0.21820024,0,0,-0.21820024,-166.7022,-211.2587)" />
          <path
             d="m 997.45478,-2263.0708 c 2.154,2.258 7.52902,8.342 11.45202,16.615 5.017,10.578 5.762,20.73 5.762,20.73 0,0 -7.389,-7 -12.405,-17.578 -4.10002,-8.644 -5.34502,-16.999 -5.66402,-19.767 z"
             style="fill:#97cbc1;fill-opacity:1;fill-rule:nonzero;stroke:none"
             id="path124932"
             transform="matrix(0.21820024,0,0,-0.21820024,-166.7022,-211.2587)" />
          <path
             d="m 994.58858,-2263.0708 h 0.972 c 0.141,3.061 0.212,11.238 -2.295,20.125 -3.178,11.268 -9.293,19.403 -9.293,19.403 0,0 -0.963,-10.132 2.216,-21.399 2.433,-8.632 6.588,-15.422 8.4,-18.129"
             style="fill:#97cbc1;fill-opacity:1;fill-rule:nonzero;stroke:none"
             id="path124936"
             transform="matrix(0.21820024,0,0,-0.21820024,-166.7022,-211.2587)" />
          <path
             d="m 994.38348,-2263.0708 h 1.293 c -0.945,2.817 -3.856,10.557 -9.49,18.016 -7.058,9.341 -15.71302,14.698 -15.71302,14.698 0,0 2.786,-9.79 9.84602,-19.13 5.18,-6.858 11.217,-11.564 14.064,-13.584"
             style="fill:#97cbc1;fill-opacity:1;fill-rule:nonzero;stroke:none"
             id="path124940"
             transform="matrix(0.21820024,0,0,-0.21820024,-166.7022,-211.2587)" />
          <path
             d="m 986.65598,-2263.0708 h 8.239 c -2.703,2.32 -8.652,6.968 -16.427,10.309 -10.75602,4.623 -20.92702,4.992 -20.92702,4.992 0,0 7.267,-7.126 18.023,-11.748 3.93302,-1.691 7.78402,-2.81 11.09202,-3.553"
             style="fill:#97cbc1;fill-opacity:1;fill-rule:nonzero;stroke:none"
             id="path124944"
             transform="matrix(0.21820024,0,0,-0.21820024,-166.7022,-211.2587)" />
          <path
             d="m 996.86688,-2263.0708 c 1.142,3.22 3.41402,10.641 3.68702,19.357 0.366,11.703 -3.01302,21.303 -3.01302,21.303 0,0 -3.972,-9.371 -4.337,-21.073 -0.274,-8.748 1.545,-16.321 2.48,-19.587 z"
             style="fill:#97cbc1;fill-opacity:1;fill-rule:nonzero;stroke:none"
             id="path124948"
             transform="matrix(0.21820024,0,0,-0.21820024,-166.7022,-211.2587)" />
          <path
             d="m 1005.3659,-2263.0708 c 3.455,0.674 7.567,1.748 11.784,3.466 10.842,4.416 18.244,11.403 18.244,11.403 0,0 -10.175,-0.176 -21.017,-4.593 -8.178,-3.331 -14.39702,-8.121 -16.96002,-10.276 z"
             style="fill:#97cbc1;fill-opacity:1;fill-rule:nonzero;stroke:none"
             id="path124952"
             transform="matrix(0.21820024,0,0,-0.21820024,-166.7022,-211.2587)" />
          <path
             d="m 282.03992,-2240.3292 c 3.466,1.762 9.41,5.203 14.975,10.43 8.533,8.015 12.932,17.193 12.932,17.193 0,0 -9.435,-3.818 -17.968,-11.834 -6.517,-6.122 -10.621,-12.919 -12.197,-15.789 z"
             style="fill:#97cbc1;fill-opacity:1;fill-rule:nonzero;stroke:none"
             id="path124956"
             transform="matrix(0.21820024,0,0,-0.21820024,-166.7022,-211.2587)" />
          <path
             d="m 279.97842,-2240.3292 c 2.154,2.258 7.529,8.342 11.452,16.615 5.017,10.578 5.762,20.73 5.762,20.73 0,0 -7.389,-7 -12.405,-17.578 -4.1,-8.644 -5.345,-16.999 -5.664,-19.767 z"
             style="fill:#97cbc1;fill-opacity:1;fill-rule:nonzero;stroke:none"
             id="path124960"
             transform="matrix(0.21820024,0,0,-0.21820024,-166.7022,-211.2587)" />
          <path
             d="m 277.11222,-2240.3292 h 0.972 c 0.141,3.061 0.212,11.238 -2.295,20.125 -3.178,11.268 -9.293,19.403 -9.293,19.403 0,0 -0.963,-10.132 2.216,-21.399 2.433,-8.632 6.588,-15.422 8.4,-18.129"
             style="fill:#97cbc1;fill-opacity:1;fill-rule:nonzero;stroke:none"
             id="path124964"
             transform="matrix(0.21820024,0,0,-0.21820024,-166.7022,-211.2587)" />
          <path
             d="m 276.90712,-2240.3292 h 1.293 c -0.945,2.817 -3.856,10.557 -9.49,18.016 -7.058,9.341 -15.713,14.698 -15.713,14.698 0,0 2.786,-9.79 9.846,-19.13 5.18,-6.858 11.217,-11.564 14.064,-13.584"
             style="fill:#97cbc1;fill-opacity:1;fill-rule:nonzero;stroke:none"
             id="path124968"
             transform="matrix(0.21820024,0,0,-0.21820024,-166.7022,-211.2587)" />
          <path
             d="m 269.17962,-2240.3292 h 8.239 c -2.703,2.32 -8.652,6.968 -16.427,10.309 -10.756,4.623 -20.927,4.992 -20.927,4.992 0,0 7.267,-7.126 18.023,-11.748 3.933,-1.691 7.784,-2.81 11.092,-3.553"
             style="fill:#97cbc1;fill-opacity:1;fill-rule:nonzero;stroke:none"
             id="path124972"
             transform="matrix(0.21820024,0,0,-0.21820024,-166.7022,-211.2587)" />
          <path
             d="m 279.39052,-2240.3292 c 1.142,3.22 3.414,10.641 3.687,19.357 0.366,11.703 -3.013,21.303 -3.013,21.303 0,0 -3.972,-9.371 -4.337,-21.073 -0.274,-8.748 1.545,-16.321 2.48,-19.587 z"
             style="fill:#97cbc1;fill-opacity:1;fill-rule:nonzero;stroke:none"
             id="path124976"
             transform="matrix(0.21820024,0,0,-0.21820024,-166.7022,-211.2587)" />
          <path
             d="m 287.88952,-2240.3292 c 3.455,0.674 7.567,1.748 11.784,3.466 10.842,4.416 18.244,11.403 18.244,11.403 0,0 -10.175,-0.176 -21.017,-4.593 -8.178,-3.331 -14.397,-8.121 -16.96,-10.276 z"
             style="fill:#97cbc1;fill-opacity:1;fill-rule:nonzero;stroke:none"
             id="path124980"
             transform="matrix(0.21820024,0,0,-0.21820024,-166.7022,-211.2587)" />
          <path
             style="fill:#666666;stroke-width:1.29174"
             d="m 531.02905,246.85998 c -1.21714,-1.34493 -6.1028,-3.42183 -10.85703,-4.61534 -4.75423,-1.19352 -9.74321,-3.14485 -11.08661,-4.33631 -3.50198,-3.10587 -9.59201,-16.45299 -11.33431,-24.84066 -1.41897,-6.83109 -1.66115,-7.14843 -5.07322,-6.64765 l -3.58312,0.52589 1.80343,-5.99236 c 0.99189,-3.2958 2.1176,-6.50068 2.50157,-7.12196 1.49928,-2.42589 -0.97855,-5.23795 -4.6154,-5.23795 -2.64834,0 -3.73701,-0.63639 -3.73701,-2.18449 0,-1.92998 -0.20752,-1.9007 -1.78113,0.25134 -1.62395,2.22089 -2.27942,2.28828 -7.42749,0.76368 -4.13522,-1.22464 -7.61488,-3.78902 -13.00171,-9.58179 l -7.35534,-7.90962 -1.63179,6.1011 c -1.34398,5.02498 -2.15414,6.1011 -4.59323,6.1011 -2.44051,0 -2.96143,0.69344 -2.96143,3.94223 0,2.16822 1.07328,6.09187 2.38507,8.71922 1.31178,2.62735 3.83759,7.68341 5.61291,11.23569 3.5929,7.18912 9.92693,12.2715 15.29366,12.2715 2.57246,0 3.74537,0.7905 4.31241,2.90641 1.58657,5.92023 0.69939,8.08367 -5.04903,12.31244 -5.31365,3.90893 -5.76244,4.03146 -5.76244,1.57318 0,-1.46624 -0.85511,-4.71248 -1.90026,-7.21386 l -1.90026,-4.54796 -7.46483,0.83943 c -6.46206,0.72666 -7.94203,0.46296 -11.01712,-1.963 -4.28076,-3.37712 -4.44029,-6.15139 -0.76615,-13.3232 2.60711,-5.08899 2.6901,-6.10671 1.29174,-15.83936 -2.62397,-18.26283 -2.25088,-20.927 3.72695,-26.61358 2.87174,-2.73182 6.10358,-4.96694 7.18188,-4.96694 1.0783,0 4.97747,-2.82643 8.66484,-6.28095 11.33938,-10.62334 15.73021,-11.58719 24.34774,-5.34469 4.75661,3.44567 6.37332,3.87522 14.58545,3.87522 10.22524,0 12.33604,1.16387 12.33604,6.80195 0,4.81753 2.13097,8.69889 4.77593,8.69889 1.15586,0 5.17383,-0.96845 8.92883,-2.1521 8.24101,-2.59776 10.11997,-1.56661 11.36808,6.23865 1.19893,7.49767 4.47307,11.47089 16.25704,19.72813 11.93505,8.3631 14.7998,12.72839 13.85487,21.11188 -0.85648,7.59856 -3.82844,11.32677 -14.89135,18.68058 -5.55104,3.68992 -10.07144,7.79813 -11.37073,10.3339 -3.43339,6.70079 -6.37444,7.78208 -10.06745,3.70136 z m -36.4872,-77.38477 c -5.14772,-10.29377 -10.14548,-13.39423 -20.80205,-12.90494 -7.54702,0.34651 -8.37986,0.68417 -10.68362,4.33152 l -2.49854,3.95571 7.60273,-0.54993 c 6.45651,-0.46703 8.57735,-0.0195 14.06729,2.96852 3.5555,1.93514 8.39754,5.51278 10.76008,7.9503 5.56772,5.74444 6.17641,3.49192 1.55411,-5.75118 z"
             id="path1419"
             transform="matrix(0.24117296,0,0,0.24117296,-117.66408,126.40055)" />
        </g>
      </g>
    </g>
  </g>
</svg>
