<?xml version="1.0" encoding="UTF-8" standalone="no"?>
<!-- Created with Inkscape (http://www.inkscape.org/) -->

<svg
   width="200mm"
   height="200mm"
   viewBox="0 0 200.00001 200"
   version="1.1"
   id="svg529187"
   sodipodi:docname="dating_couple.svg"
   inkscape:version="1.1 (c4e8f9ed74, 2021-05-24)"
   inkscape:export-filename="/home/mike/OneDrive/uni/webdesign/project/dating_couple.png"
   inkscape:export-xdpi="96"
   inkscape:export-ydpi="96"
   xmlns:inkscape="http://www.inkscape.org/namespaces/inkscape"
   xmlns:sodipodi="http://sodipodi.sourceforge.net/DTD/sodipodi-0.dtd"
   xmlns="http://www.w3.org/2000/svg"
   xmlns:svg="http://www.w3.org/2000/svg">
  <sodipodi:namedview
     id="namedview529189"
     pagecolor="#ffffff"
     bordercolor="#666666"
     borderopacity="1.0"
     inkscape:pageshadow="2"
     inkscape:pageopacity="0.0"
     inkscape:pagecheckerboard="0"
     inkscape:document-units="mm"
     showgrid="false"
     inkscape:zoom="0.75098906"
     inkscape:cx="287.6207"
     inkscape:cy="415.45213"
     inkscape:window-width="1920"
     inkscape:window-height="1029"
     inkscape:window-x="0"
     inkscape:window-y="22"
     inkscape:window-maximized="1"
     inkscape:current-layer="layer1" />
  <defs
     id="defs529184">
    <clipPath
       clipPathUnits="userSpaceOnUse"
       id="clipPath497501">
      <path
         d="M 0,595.276 H 595.276 V 0 H 0 Z"
         id="path497499" />
    </clipPath>
    <clipPath
       clipPathUnits="userSpaceOnUse"
       id="clipPath497501-0">
      <path
         d="M 0,595.276 H 595.276 V 0 H 0 Z"
         id="path497499-9" />
    </clipPath>
  </defs>
  <g
     inkscape:label="Layer 1"
     inkscape:groupmode="layer"
     id="layer1"
     transform="translate(-28.586383,-164.32751)">
    <g
       id="g675016"
       transform="matrix(0.99890929,0,0,1,0.03117957,0)">
      <rect
         style="fill:#ffffff;stroke-width:0.264583"
         id="rect674702"
         width="200"
         height="200"
         x="28.804764"
         y="164.32751" />
      <g
         id="g674888"
         transform="matrix(1.2262287,0,0,1.376708,-17.638221,-88.268442)">
        <path
           d="m 123.35958,225.50563 1.02728,-0.53199 0.25718,-0.13335 0.0642,-0.0332 0.0159,-0.008 0.0208,-0.01 0.0413,-0.0191 c 0.0279,-0.0127 0.055,-0.0258 0.0833,-0.037 l 0.0868,-0.0296 c 0.23213,-0.0776 0.4833,-0.0889 0.72037,-0.0441 0.23848,0.043 0.46179,0.15275 0.64911,0.30374 0.18838,0.15169 0.3302,0.35489 0.42228,0.57432 0.0903,0.2219 0.12241,0.46602 0.0949,0.70238 -0.0137,0.11783 -0.042,0.23424 -0.0843,0.34502 -0.0215,0.055 -0.0455,0.10936 -0.0737,0.16157 -0.0134,0.0265 -0.0286,0.0519 -0.0441,0.0769 l -0.0236,0.0374 -0.0198,0.03 c -0.10795,0.16158 -0.22507,0.33126 -0.34925,0.48754 -0.12382,0.1577 -0.25541,0.30974 -0.3937,0.45509 -0.27658,0.29033 -0.58067,0.55421 -0.90629,0.78669 -0.32561,0.23213 -0.67274,0.43321 -1.03575,0.59937 -0.0907,0.0406 -0.18309,0.0787 -0.27446,0.11818 l -0.28011,0.10478 -0.28434,0.0914 -0.14393,0.0388 -0.0723,0.0194 -0.0356,0.01 -0.018,0.005 -0.01,0.002 -0.004,0.001 -0.004,3.5e-4 c -0.0222,-0.0818 0.0462,0.1845 -0.0504,-0.18344 -0.0945,-0.3683 -0.0247,-0.10231 -0.0455,-0.18486 l 0.004,-7e-4 0.004,-0.001 0.008,-0.002 0.0169,-0.005 0.0335,-0.0102 0.067,-0.0201 0.13405,-0.0406 0.26388,-0.0938 0.25894,-0.10619 0.25329,-0.11853 c 0.33373,-0.16545 0.65088,-0.36266 0.94651,-0.58773 0.29527,-0.22472 0.56903,-0.47766 0.81597,-0.75353 0.12312,-0.13794 0.24024,-0.28152 0.34996,-0.43074 0.11112,-0.14958 0.20884,-0.30057 0.31044,-0.46285 l 0.0187,-0.0307 0.0138,-0.0247 c 0.01,-0.0162 0.019,-0.0321 0.0268,-0.049 0.0166,-0.0335 0.0307,-0.0681 0.0427,-0.10301 0.0243,-0.0702 0.0395,-0.14323 0.0459,-0.21696 0.0124,-0.14746 -0.0123,-0.29704 -0.0723,-0.43074 -0.0625,-0.13229 -0.15064,-0.2533 -0.26706,-0.33973 -0.11536,-0.0861 -0.25082,-0.14922 -0.39334,-0.16862 -0.14217,-0.0215 -0.28822,-0.0109 -0.42087,0.0392 l -0.0497,0.0183 c -0.0162,0.007 -0.0317,0.0162 -0.048,0.024 l -0.024,0.0116 -0.012,0.006 -0.0159,0.008 -0.0631,0.0356 -0.25259,0.14076 -1.01071,0.56339 c -0.16087,0.0896 -0.36371,0.0321 -0.45332,-0.12877 -0.0896,-0.16051 -0.0318,-0.36336 0.12876,-0.45296 0.004,-0.001 0.006,-0.004 0.009,-0.005"
           style="fill:#000000;fill-opacity:1;fill-rule:nonzero;stroke:none;stroke-width:0.352778"
           id="path497593" />
        <path
           d="m 119.52929,224.38186 h -1.14794 -4.5981 l 0.35066,3.41488 c 0.0773,0.63571 0.32173,1.23967 0.70838,1.75049 0.6858,0.90628 1.75648,1.43898 2.89348,1.43898 h 0.64558 1.14794 0.64594 c 1.13665,0 2.20768,-0.5327 2.89313,-1.43898 0.38664,-0.51082 0.63112,-1.11478 0.70873,-1.75049 l 0.35031,-3.41488 z"
           style="fill:#000000;fill-opacity:1;fill-rule:nonzero;stroke:none;stroke-width:0.352778"
           id="path497597" />
        <path
           d="m 161.17845,216.38181 -9.37331,4.35786 -3.52037,-6.80438 -1.01,-1.95333 c -7.6133,0.39794 -5.94148,-7.30038 -5.94148,-7.30038 -1.58398,-0.79516 -0.66182,-1.45344 -0.66182,-1.45344 1.01354,0.0878 1.67535,-1.01036 1.67535,-1.01036 0.88018,-4.00544 3.21027,-6.73347 3.21027,-6.73347 1.36596,5.50157 5.80814,4.70606 5.80814,4.70606 -0.44027,2.90759 1.01353,4.18182 1.01353,4.18182 l 1.40793,-3.03424 0.74613,0.48225 c 2.06975,-2.15794 3.69605,-0.17604 3.69605,-0.17604 1.40794,2.06622 -0.17603,3.9176 -0.17603,3.9176 -1.71768,1.62595 -3.60822,0.57009 -3.60822,0.57009 1.3201,2.68217 3.43218,3.12596 3.43218,3.12596 z"
           style="fill:#c34d1d;fill-opacity:1;fill-rule:nonzero;stroke:none;stroke-width:0.352778"
           id="path497601" />
        <path
           d="m 160.51664,255.76236 -10.79571,-25.1072 c 0,0 -1.04775,-3.01166 -0.9271,-5.70547 l -2.23943,10.27994 c 0,0 -0.58667,1.99461 3.16794,1.87748 l 6.92221,19.71111 h 4.39914 c -0.19297,-0.33549 -0.37042,-0.6858 -0.52705,-1.05586"
           style="fill:#ffca64;fill-opacity:1;fill-rule:nonzero;stroke:none;stroke-width:0.352778"
           id="path497605" />
        <path
           d="m 162.43141,293.39006 -0.895,16.39781 c -3.67277,-0.41416 -4.89444,-2.69275 -5.30154,-6.17114 -0.18733,-1.61784 -0.20215,-2.788 -0.20215,-2.788 0,-3.18135 -3.91124,-6.35847 -3.91124,-6.35847 -1.71309,-1.2252 -18.34445,-13.94213 -18.34445,-13.94213 -3.29812,-2.68534 -6.12351,-5.5947 -8.45326,-8.32838 -3.9624,-4.64855 -1.09714,-11.83216 4.97523,-12.48163 l 17.05327,-1.8161 1.10067,14.55456 h -7.09577 l 16.631,14.9987 3.14819,2.83668 c 0.87348,0.78705 1.34832,1.9237 1.29505,3.0981"
           style="fill:#c34d1d;fill-opacity:1;fill-rule:nonzero;stroke:none;stroke-width:0.352778"
           id="path497609" />
        <path
           d="m 144.12729,274.95534 -7.66093,-2.49873 h 4.89056"
           style="fill:#000000;fill-opacity:1;fill-rule:nonzero;stroke:none;stroke-width:0.352778"
           id="path497613" />
        <path
           d="m 162.43141,293.39006 -0.895,16.39781 c -3.67277,-0.41416 -4.89444,-2.69275 -5.30154,-6.17114 0.74083,-0.63077 1.9371,-1.21426 3.83398,-1.3208 v -10.27289 c 0,0 -2.00342,-2.3114 -2.08068,-4.56776 l 3.14819,2.83668 c 0.87348,0.78705 1.34832,1.9237 1.29505,3.0981"
           style="fill:#000000;fill-opacity:1;fill-rule:nonzero;stroke:none;stroke-width:0.352778"
           id="path497617" />
        <path
           d="m 51.638549,310.63207 h 6.35952 l 8.07156,-31.98072 h -6.84847 z"
           style="fill:#000000;fill-opacity:1;fill-rule:nonzero;stroke:none;stroke-width:0.352778"
           id="path497621" />
        <path
           d="m 90.040139,310.63207 h -6.35953 l -8.0719,-31.98072 h 6.84882 z"
           style="fill:#000000;fill-opacity:1;fill-rule:nonzero;stroke:none;stroke-width:0.352778"
           id="path497625" />
        <path
           d="m 37.69656,227.40837 13.032319,46.78257 c 0.75459,2.70898 3.22192,4.58258 6.03356,4.58258 h 32.66616 l 2.20133,-5.99228 h -30.81902 c 0,0 -7.33777,1.4672 -9.78394,-13.08629 l -4.52508,-23.35883 c 0,0 -0.73377,-9.78394 -8.805329,-8.92775"
           style="fill:#ffca64;fill-opacity:1;fill-rule:nonzero;stroke:none;stroke-width:0.352778"
           id="path497629" />
        <path
           d="m 185.86495,310.63207 h -6.35917 l -8.07191,-31.98072 h 6.84883 z"
           style="fill:#000000;fill-opacity:1;fill-rule:nonzero;stroke:none;stroke-width:0.352778"
           id="path497633" />
        <path
           d="m 147.46351,310.63207 h 6.35917 l 8.07191,-31.98072 h -6.84883 z"
           style="fill:#000000;fill-opacity:1;fill-rule:nonzero;stroke:none;stroke-width:0.352778"
           id="path497637" />
        <path
           d="m 199.80691,227.40837 -13.03197,46.78257 c -0.75494,2.70898 -3.22192,4.58258 -6.03426,4.58258 h -32.66581 l -2.20133,-5.99228 h 30.81901 c 0,0 7.33778,1.4672 9.78394,-13.08629 l 4.52508,-23.35883 c 0,0 0.73378,-9.78394 8.80534,-8.92775"
           style="fill:#ffca64;fill-opacity:1;fill-rule:nonzero;stroke:none;stroke-width:0.352778"
           id="path497641" />
        <path
           d="m 111.6869,241.96183 c 0,0 -4.40267,-4.52508 -11.25149,-3.66889 H 83.191629 l -4.02378,-11.97433 c 0.0928,0.66851 0.14075,1.34478 0.14075,2.02318 v 17.90558 c 2.87444,0.42722 8.88718,0.78035 16.72414,-1.71732 0,0 2.20133,-0.48895 4.525081,0.73378 0,0 3.91336,0.85619 8.19397,0.24483 0,0 0.73378,-0.4893 0.24447,-1.58997 0,0 0.8562,0.24447 1.95686,1.22308 0,0 1.34514,0.85584 2.8127,0.24447 0,0 0.36689,-0.97825 -2.07892,-3.42441"
           style="fill:#a03915;fill-opacity:1;fill-rule:nonzero;stroke:none;stroke-width:0.352778"
           id="path497645" />
        <path
           d="m 84.169709,204.78339 c 0,0 1.79034,8.02746 -6.42056,7.19843 l -0.84032,1.65841 -2.27824,4.49051 -8.43844,-4.81718 3.85198,-6.92326 c 0,0 -2.56787,-1.93005 -1.14441,-3.58105 0,0 2.47297,-2.20098 4.90537,1.37971 0,0 0.78141,-1.83444 -0.5027,-3.80823 0,0 2.24543,-0.59443 1.1885,-3.52955 0,0 4.95336,0.82162 6.14927,-1.7466 0,0 2.65642,0.82938 3.25438,6.97124 0,0 0.55033,1.05657 1.51553,1.33174 0,0 1.28376,0.6858 -1.24036,1.37583"
           style="fill:#c34d1d;fill-opacity:1;fill-rule:nonzero;stroke:none;stroke-width:0.352778"
           id="path497649" />
        <path
           d="m 80.008369,205.93094 c 0,0.84984 -0.68897,1.53917 -1.53917,1.53917 -0.84984,0 -1.53916,-0.68933 -1.53916,-1.53917 0,-0.85019 0.68932,-1.53917 1.53916,-1.53917 0.8502,0 1.53917,0.68898 1.53917,1.53917"
           style="fill:#b2421b;fill-opacity:1;fill-rule:nonzero;stroke:none;stroke-width:0.352778"
           id="path497653" />
        <path
           d="m 149.18227,206.74812 c 0,0.81244 -0.65828,1.47108 -1.47108,1.47108 -0.81245,0 -1.47108,-0.65864 -1.47108,-1.47108 0,-0.81245 0.65863,-1.47109 1.47108,-1.47109 0.8128,0 1.47108,0.65864 1.47108,1.47109"
           style="fill:#b2421b;fill-opacity:1;fill-rule:nonzero;stroke:none;stroke-width:0.352778"
           id="path497657" />
        <path
           d="m 70.044309,206.38846 c 0,0 -2.56823,-1.92617 -1.14653,-3.57717 0,0 2.47685,-2.20133 4.90714,1.37584 0,0 0.77999,-1.83445 -0.50447,-3.80647 0,0 2.24754,-0.5962 1.19238,-3.53166 0,0 4.953,0.82585 6.14539,-1.74237 2.56858,-1.23825 2.06411,-3.85234 2.06411,-3.85234 -1.28412,-6.09988 -6.51263,-4.44888 -6.51263,-4.44888 -4.99887,1.28411 -3.71475,6.37505 -3.71475,6.37505 l -4.54025,3.76061 c -3.75497,3.75497 1.18921,10.67365 1.32362,10.86027 z"
           style="fill:#ffca64;fill-opacity:1;fill-rule:nonzero;stroke:none;stroke-width:0.352778"
           id="path497661" />
        <path
           d="m 71.248689,206.7805 c -1.06257,0 -1.264,-0.28293 -1.29575,-0.34607 l 0.18274,-0.0917 -0.0914,0.0459 0.0885,-0.0508 c 0.004,0.003 0.21943,0.30868 1.55611,0.22401 l 0.0127,0.20391 c -0.16616,0.0102 -0.3168,0.0148 -0.45297,0.0148"
           style="fill:#000000;fill-opacity:1;fill-rule:nonzero;stroke:none;stroke-width:0.352778"
           id="path497665" />
        <path
           d="m 72.847059,205.25001 c -1.09855,-1.75754 -3.27096,-1.46932 -3.29248,-1.46614 l -0.0293,-0.2025 c 0.0233,-0.003 2.32657,-0.30868 3.49497,1.56034 z"
           style="fill:#000000;fill-opacity:1;fill-rule:nonzero;stroke:none;stroke-width:0.352778"
           id="path497669" />
        <path
           d="m 70.572939,204.8368 -0.0483,-0.19861 1.51377,-0.36689 0.048,0.19861 z"
           style="fill:#000000;fill-opacity:1;fill-rule:nonzero;stroke:none;stroke-width:0.352778"
           id="path497673" />
        <path
           d="m 77.749079,211.98175 -0.84032,1.65841 c -0.75212,-1.25836 -1.91135,-3.30941 -1.91135,-3.30941 z"
           style="fill:#000000;fill-opacity:1;fill-rule:nonzero;stroke:none;stroke-width:0.352778"
           id="path497677" />
        <path
           d="m 79.308499,228.34164 v 27.3484 l -27.60874,1.19238 c 0.64205,-16.96896 4.86127,-31.09453 4.86127,-31.09453 5.04473,-10.7315 9.63084,-12.47423 9.63084,-12.47423 l 8.43879,4.81719 c 1.07104,0.76305 1.91488,1.75753 2.57175,2.77741 1.41994,2.20875 2.10609,4.80978 2.10609,7.43338"
           style="fill:#6f99ff;fill-opacity:1;fill-rule:nonzero;stroke:none;stroke-width:0.352778"
           id="path497681" />
        <path
           d="m 79.308499,240.22532 v 8.60001 c -8.56333,-4.46158 -18.80341,-19.78307 -18.80341,-19.78307 z"
           style="fill:#000000;fill-opacity:1;fill-rule:nonzero;stroke:none;stroke-width:0.352778"
           id="path497685" />
        <path
           d="m 64.174009,214.78122 12.5663,7.61294 -1.10102,-5.13644 -9.44739,-3.94406 z"
           style="fill:#ffffff;fill-opacity:1;fill-rule:nonzero;stroke:none;stroke-width:0.352778"
           id="path497689" />
        <path
           d="m 83.068999,207.62682 -3.39372,-1.28411 c 0,0 1.46756,2.93511 3.39372,1.28411"
           style="fill:#ffffff;fill-opacity:1;fill-rule:nonzero;stroke:none;stroke-width:0.352778"
           id="path497693" />
        <path
           d="m 86.492219,255.29348 v 17.97791 h -26.53736 c -7.63869,-0.61631 -8.46807,-8.47866 -8.3947,-13.09053 0.0258,-1.81257 0.19086,-3.12631 0.13935,-3.29847 l 24.72902,-1.12995 z"
           style="fill:#fe80a5;fill-opacity:1;fill-rule:nonzero;stroke:none;stroke-width:0.352778"
           id="path497697" />
        <path
           d="m 81.846169,255.50469 v 17.76518 h 4.64714 v -17.97756 z"
           style="fill:#ffffff;fill-opacity:1;fill-rule:nonzero;stroke:none;stroke-width:0.352778"
           id="path497701" />
        <path
           d="m 81.723859,265.30044 h -19.44546 c -2.48391,0 -4.50497,-2.02071 -4.50497,-4.50497 v -4.2799 h 0.20425 v 4.2799 c 0,2.37173 1.92935,4.30071 4.30072,4.30071 h 19.44546 z"
           style="fill:#000000;fill-opacity:1;fill-rule:nonzero;stroke:none;stroke-width:0.352778"
           id="path497705" />
        <path
           d="m 51.560339,260.18069 c 0.0258,-1.81258 0.19085,-3.12597 0.13935,-3.29848 l 24.72866,-1.12994 z"
           style="fill:#000000;fill-opacity:1;fill-rule:nonzero;stroke:none;stroke-width:0.352778"
           id="path497709" />
        <path
           d="m 59.314039,262.93059 c -0.11924,0 -0.19508,-0.002 -0.22048,-0.004 l 0.0713,-1.63266 -0.0356,0.81633 0.0339,-0.81633 c 0.2346,0.005 5.78027,0.17322 7.64505,-4.52966 l 1.51941,0.60254 c -2.09232,5.27614 -7.79744,5.56366 -9.01347,5.56366"
           style="fill:#000000;fill-opacity:1;fill-rule:nonzero;stroke:none;stroke-width:0.352778"
           id="path497713" />
        <path
           d="m 104.33798,269.48488 -14.481181,34.81846 c 0,0 0.91722,1.74272 6.69572,1.74272 0,0 5.686781,0.91723 6.053671,4.58612 H 80.225609 l 9.42905,-35.94453 0.8442,-3.22157 h -4.0065 v -14.58383 h 9.43645 c 6.493931,0 10.900481,6.604 8.409171,12.60263"
           style="fill:#c34d1d;fill-opacity:1;fill-rule:nonzero;stroke:none;stroke-width:0.352778"
           id="path497717" />
        <path
           d="m 95.176619,306.00874 c -0.80539,-0.0444 -1.49331,-0.12629 -2.07927,-0.23177 v 4.85492 h 2.07927 z"
           style="fill:#000000;fill-opacity:1;fill-rule:nonzero;stroke:none;stroke-width:0.352778"
           id="path497721" />
        <path
           d="m 98.356279,306.52686 v 4.10528 h 2.323741 v -2.95875 c -0.745771,-0.52317 -1.591731,-0.89253 -2.323741,-1.14653"
           style="fill:#000000;fill-opacity:1;fill-rule:nonzero;stroke:none;stroke-width:0.352778"
           id="path497725" />
        <path
           d="m 80.610569,309.1648 -0.38489,1.4672 h 22.380581 c -0.055,-0.54892 -0.23107,-1.03505 -0.48719,-1.4672 z"
           style="fill:#000000;fill-opacity:1;fill-rule:nonzero;stroke:none;stroke-width:0.352778"
           id="path497729" />
        <path
           d="m 96.277319,271.46615 -6.62234,3.22157 0.84384,-3.22157 z"
           style="fill:#000000;fill-opacity:1;fill-rule:nonzero;stroke:none;stroke-width:0.352778"
           id="path497733" />
        <path
           d="m 111.34185,222.5079 c -0.0917,0.87348 -1.55928,0.8255 -1.55928,0.8255 1.0788,0.20567 0.87313,0.8255 0.87313,0.8255 -0.0476,0.87312 -1.05657,0.91722 -1.05657,0.91722 l -6.02792,0.2092 3.14043,1.25836 c 1.92617,0.48083 1.60338,1.30986 1.60338,1.30986 -0.13582,0.68615 -0.91723,0.57221 -0.91723,0.57221 l -5.41161,-0.9645 c -2.293411,-0.59478 -3.445231,0.61983 -3.445231,0.61983 l -13.89062,15.14546 c -2.74426,2.99014 -7.44044,3.03777 -10.24361,0.10266 l -4.80624,-4.93854 -9.09532,-9.34826 h 0.004 c -1.08973,-1.09361 -1.76107,-2.60138 -1.76107,-4.26332 0,-3.33516 2.70404,-6.0392 6.0392,-6.0392 1.69863,0 3.22863,0.7045 4.32541,1.8348 l 0.0148,-0.0148 8.77252,9.56486 1.91171,2.08386 13.07218,-9.17222 c 2.88748,-1.92617 4.81753,-8.23313 4.81753,-8.23313 0.84737,-1.83444 1.5113,-1.5374 1.5113,-1.5374 1.078791,0.94297 -0.0219,4.17548 -0.0219,4.17548 -0.64206,1.81222 1.236481,2.13148 1.236481,2.13148 l 8.5524,0.50624 c 1.79034,0.15804 1.72049,0.8255 1.72049,0.8255 0.0476,0.73377 -0.93909,0.77787 -0.93909,0.77787 1.92617,0.0476 1.58115,0.8255 1.58115,0.8255"
           style="fill:#c34d1d;fill-opacity:1;fill-rule:nonzero;stroke:none;stroke-width:0.352778"
           id="path497737" />
        <path
           d="m 79.811139,232.20858 -2.88749,2.29306 1.92969,-3.33869"
           style="fill:#000000;fill-opacity:1;fill-rule:nonzero;stroke:none;stroke-width:0.352778"
           id="path497741" />
        <path
           d="m 77.899639,230.12465 -8.29909,8.26629 -9.09532,-9.34861 h 0.004 c -1.08973,-1.09326 -1.76107,-2.60138 -1.76107,-4.26332 0,-3.33516 2.70404,-6.03885 6.03921,-6.03885 1.69862,0 3.22862,0.70415 4.3254,1.83445 l 0.0148,-0.0148 z"
           style="fill:#ffffff;fill-opacity:1;fill-rule:nonzero;stroke:none;stroke-width:0.352778"
           id="path497745" />
        <path
           d="m 76.587909,228.69442 -8.30157,8.34567 1.3141,1.35078 8.2991,-8.26629 z"
           style="fill:#6f99ff;fill-opacity:1;fill-rule:nonzero;stroke:none;stroke-width:0.352778"
           id="path497749" />
        <path
           d="m 109.78056,223.43567 -6.90139,-0.14429 0.005,-0.20461 6.90104,0.14464 z"
           style="fill:#000000;fill-opacity:1;fill-rule:nonzero;stroke:none;stroke-width:0.352778"
           id="path497753" />
        <path
           d="m 109.75661,221.7846 -6.75711,-0.26635 0.008,-0.20426 6.75676,0.26635 z"
           style="fill:#000000;fill-opacity:1;fill-rule:nonzero;stroke:none;stroke-width:0.352778"
           id="path497757" />
        <path
           d="m 96.176209,231.5914 -6.30343,-6.91692 1.85808,-1.69368 6.30379,6.91727 z"
           style="fill:#6f99ff;fill-opacity:1;fill-rule:nonzero;stroke:none;stroke-width:0.352778"
           id="path497761" />
        <path
           d="m 96.460759,227.50016 c 0,1.50284 -1.21849,2.72098 -2.72132,2.72098 -1.50284,0 -2.72098,-1.21814 -2.72098,-2.72098 0,-1.50283 1.21814,-2.72097 2.72098,-2.72097 1.50283,0 2.72132,1.21814 2.72132,2.72097"
           style="fill:#000000;fill-opacity:1;fill-rule:nonzero;stroke:none;stroke-width:0.352778"
           id="path497765" />
        <path
           d="m 95.788119,227.50016 c 0,1.13136 -0.91722,2.04858 -2.04858,2.04858 -1.13136,0 -2.04858,-0.91722 -2.04858,-2.04858 0,-1.13135 0.91722,-2.04858 2.04858,-2.04858 1.13136,0 2.04858,0.91723 2.04858,2.04858"
           style="fill:#ffca64;fill-opacity:1;fill-rule:nonzero;stroke:none;stroke-width:0.352778"
           id="path497769" />
        <path
           d="m 108.93735,244.00219 c -3.24026,-2.28035 -8.21267,-2.54741 -8.26241,-2.54988 l 0.01,-0.2039 c 0.0504,0.002 5.08212,0.27269 8.37001,2.58656 z"
           style="fill:#000000;fill-opacity:1;fill-rule:nonzero;stroke:none;stroke-width:0.352778"
           id="path497773" />
        <path
           d="m 144.36259,208.43002 c -0.65335,0 -1.15641,-0.25717 -1.18463,-0.27164 l 0.0942,-0.18097 c 0.009,0.004 0.86043,0.43674 1.74167,0.1464 0.57114,-0.18803 1.03364,-0.63641 1.37548,-1.33279 l 0.18344,0.0896 c -0.36689,0.7486 -0.87101,1.23225 -1.49719,1.43828 -0.24659,0.0808 -0.48859,0.11112 -0.71296,0.11112"
           style="fill:#000000;fill-opacity:1;fill-rule:nonzero;stroke:none;stroke-width:0.352778"
           id="path497777" />
        <path
           d="m 150.09075,210.57406 -1.80587,3.36127 -1.01001,-1.95333 c 0,0 1.62596,0 2.81588,-1.40794"
           style="fill:#000000;fill-opacity:1;fill-rule:nonzero;stroke:none;stroke-width:0.352778"
           id="path497781" />
        <path
           d="m 159.5193,193.92962 c -4.16525,-4.28237 -10.57452,-3.24132 -10.57452,-3.24132 -5.50051,0.73378 -5.03978,6.33095 -4.941,7.15504 0.80715,-1.48449 1.55328,-2.35903 1.55328,-2.35903 1.36595,5.50157 5.80813,4.70606 5.80813,4.70606 -0.44026,2.90759 1.01353,4.18182 1.01353,4.18182 l 1.40794,-3.03424 0.74612,0.48225 c 2.06975,-2.15794 3.69606,-0.17604 3.69606,-0.17604 1.40793,2.06622 -0.17604,3.9176 -0.17604,3.9176 -1.71767,1.62631 -3.60821,0.57009 -3.60821,0.57009 1.32009,2.68217 3.43217,3.12596 3.43217,3.12596 5.10399,0.54434 5.51463,-1.54199 5.51463,-1.54199 4.39949,-4.98651 -3.87209,-13.7862 -3.87209,-13.7862"
           style="fill:#000000;fill-opacity:1;fill-rule:nonzero;stroke:none;stroke-width:0.352778"
           id="path497785" />
        <path
           d="m 185.7437,262.45032 c 0,0 -20.65125,4.10774 -25.22714,-6.68796 l -10.79535,-25.1072 c 0,0 -2.69628,-7.74382 1.05587,-9.50383 l -1.28835,-2.11208 6.68761,-3.05153 c 0,0 3.39372,-2.24226 7.0612,-0.28857 1.2954,0.68968 2.62572,1.90429 3.85057,3.92465 z"
           style="fill:#000000;fill-opacity:1;fill-rule:nonzero;stroke:none;stroke-width:0.352778"
           id="path497789" />
        <path
           d="m 163.23758,215.69901 -12.46047,5.45253 -1.28834,-2.11208 6.68761,-3.05188 c 0,0 3.39372,-2.24226 7.0612,-0.28857"
           style="fill:#6f99ff;fill-opacity:1;fill-rule:nonzero;stroke:none;stroke-width:0.352778"
           id="path497793" />
        <path
           d="m 155.23668,222.9113 -6.99735,13.67825 -0.98213,1.92546 -9.35602,-5.81483 -3.66748,-2.28106 -5.39608,9.38777 4.08304,2.29834 9.92611,5.58271 c 4.73781,2.66065 10.73221,1.05587 13.50222,-3.61491 l 9.21173,-15.52998"
           style="fill:#000000;fill-opacity:1;fill-rule:nonzero;stroke:none;stroke-width:0.352778"
           id="path497797" />
        <path
           d="m 133.37617,231.91232 -2.36784,-1.78647 c 0,0 -1.34938,-3.69605 -2.81587,-5.10363 0,0 -0.46955,-0.58667 -1.29082,-0.35207 l -0.35207,1.11442 -6.92256,-0.41063 c 0,0 -0.70379,0.11747 -0.7627,1.05586 0,0 -0.29316,0.82162 1.2319,1.40829 l 0.70449,5.04507 c 0,0 0.35207,2.34668 5.92491,2.4638 l 0.7627,0.11748 2.56575,2.22567 z"
           style="fill:#c34d1d;fill-opacity:1;fill-rule:nonzero;stroke:none;stroke-width:0.352778"
           id="path497801" />
        <path
           d="m 159.9475,255.70069 -0.21308,-0.49565 z"
           style="fill:#6f99ff;fill-opacity:1;fill-rule:nonzero;stroke:none;stroke-width:0.352778"
           id="path497805" />
        <path
           d="m 159.9475,255.70069 c 0.10195,0.24059 0.21449,0.47061 0.33196,0.69674 -0.11677,-0.22649 -0.23001,-0.45615 -0.33196,-0.69674"
           style="fill:#6f99ff;fill-opacity:1;fill-rule:nonzero;stroke:none;stroke-width:0.352778"
           id="path497809" />
        <path
           d="m 183.91815,263.0384 -0.006,-0.005 c -5.48957,0.70802 -19.10044,1.57021 -23.49641,-6.38246 0.0275,0.0494 0.0526,0.10125 0.0808,0.15029 h -4.58505 -10.51772 v 16.02069 h 29.71835 c 0,0 11.49597,0.61172 8.80569,-9.78358"
           style="fill:#6f99ff;fill-opacity:1;fill-rule:nonzero;stroke:none;stroke-width:0.352778"
           id="path497813" />
        <path
           d="M 152.04531,250.27797 H 83.558449 V 245.386 h 68.486861 z"
           style="fill:#000000;fill-opacity:1;fill-rule:nonzero;stroke:none;stroke-width:0.352778"
           id="path497815" />
        <path
           d="m 131.07038,250.27775 -14.62475,38.05908 -1.37901,3.58987 -7.11024,18.70533 h -5.86952 l 9.65977,-25.34355 1.77341,-4.61539 11.68012,-30.39534 z"
           style="fill:#ffca64;fill-opacity:1;fill-rule:nonzero;stroke:none;stroke-width:0.352778"
           id="path497819" />
        <path
           d="m 124.95533,310.63207 h 5.87058 l -23.11295,-60.35393 h -5.87057 z"
           style="fill:#ffca64;fill-opacity:1;fill-rule:nonzero;stroke:none;stroke-width:0.352778"
           id="path497823" />
        <path
           d="m 130.25285,252.40476 0.81739,-2.1269 h -5.86987 l -0.81739,2.1269 z"
           style="fill:#000000;fill-opacity:1;fill-rule:nonzero;stroke:none;stroke-width:0.352778"
           id="path497827" />
        <path
           d="m 108.52996,252.40476 -0.81703,-2.12655 h -5.87058 l 0.81739,2.12655 z"
           style="fill:#000000;fill-opacity:1;fill-rule:nonzero;stroke:none;stroke-width:0.352778"
           id="path497831" />
        <path
           d="m 119.5355,281.33084 -2.87302,-7.47571 0.19085,-0.0734 2.87267,7.47571 z"
           style="fill:#000000;fill-opacity:1;fill-rule:nonzero;stroke:none;stroke-width:0.352778"
           id="path497835" />
        <path
           d="m 116.44767,288.28578 -0.004,0.0512 -1.379,3.58951 -3.32,-6.63787 1.77342,-4.61539 z"
           style="fill:#000000;fill-opacity:1;fill-rule:nonzero;stroke:none;stroke-width:0.352778"
           id="path497839" />
        <path
           d="m 137.90132,232.70021 -4.98051,9.40506 -4.08305,-2.29835 5.39608,-9.38777 z"
           style="fill:#6f99ff;fill-opacity:1;fill-rule:nonzero;stroke:none;stroke-width:0.352778"
           id="path497843" />
        <path
           d="m 164.8454,250.83207 c -0.0716,-0.0953 -0.11536,-0.15733 -0.12947,-0.17815 l 1.34761,-0.92498 -0.67381,0.46249 0.67275,-0.4639 c 0.13688,0.19085 3.33622,4.72334 8.21549,3.38702 l 0.4318,1.57621 c -5.47406,1.4993 -9.13342,-2.88678 -9.86437,-3.85869"
           style="fill:#6f99ff;fill-opacity:1;fill-rule:nonzero;stroke:none;stroke-width:0.352778"
           id="path497847" />
        <path
           d="m 155.93913,244.88516 -0.1658,-0.11924 c 0.1725,-0.23918 0.33619,-0.49001 0.48789,-0.74507 l 9.21138,-15.52998 0.17568,0.10442 -9.21138,15.52963 c -0.15452,0.26035 -0.32208,0.51647 -0.49777,0.76024"
           style="fill:#ffffff;fill-opacity:1;fill-rule:nonzero;stroke:none;stroke-width:0.352778"
           id="path497851" />
        <path
           d="m 150.64334,232.11471 -0.18239,-0.0931 4.68489,-9.1567 0.18168,0.0928 z"
           style="fill:#ffffff;fill-opacity:1;fill-rule:nonzero;stroke:none;stroke-width:0.352778"
           id="path497855" />
        <path
           d="m 156.08797,206.43478 c 0,0.4512 -0.36583,0.81703 -0.81703,0.81703 -0.45156,0 -0.81739,-0.36583 -0.81739,-0.81703 0,-0.4512 0.36583,-0.81703 0.81739,-0.81703 0.4512,0 0.81703,0.36583 0.81703,0.81703"
           style="fill:#ffffff;fill-opacity:1;fill-rule:nonzero;stroke:none;stroke-width:0.352778"
           id="path497859" />
        <path
           d="m 98.625659,238.9901 -1.02765,-0.53199 -0.25682,-0.133 -0.0642,-0.0332 -0.0162,-0.008 -0.0205,-0.01 -0.0413,-0.019 c -0.0279,-0.0127 -0.0554,-0.0258 -0.0836,-0.037 l -0.0864,-0.0296 c -0.23212,-0.0776 -0.4833,-0.0889 -0.72037,-0.0441 -0.23883,0.043 -0.46178,0.15275 -0.64946,0.30374 -0.18803,0.15205 -0.32985,0.35489 -0.42192,0.57432 -0.0907,0.2219 -0.12277,0.46602 -0.0952,0.70238 0.0141,0.11783 0.0423,0.23425 0.0847,0.34502 0.0212,0.055 0.0455,0.10936 0.0737,0.16157 0.0134,0.0265 0.0286,0.0519 0.0441,0.0769 l 0.0233,0.0374 0.0201,0.03 c 0.10795,0.16157 0.22507,0.33125 0.34925,0.48754 0.12383,0.15769 0.25541,0.30973 0.3937,0.45508 0.27658,0.29033 0.58067,0.55421 0.90629,0.78669 0.32526,0.23213 0.67275,0.43321 1.0354,0.59937 0.091,0.0409 0.18345,0.0787 0.27481,0.11818 l 0.27976,0.10478 0.28469,0.0914 0.14393,0.0388 0.072,0.0194 0.036,0.01 0.018,0.005 0.009,0.002 0.005,10e-4 0.004,3.5e-4 c 0.0222,-0.0818 -0.0462,0.18451 0.0501,-0.18344 0.0949,-0.3683 0.025,-0.10231 0.0459,-0.18486 l -0.004,-7e-4 -0.004,-0.001 -0.008,-0.002 -0.0166,-0.005 -0.0339,-0.0102 -0.0667,-0.0201 -0.13406,-0.0406 -0.26388,-0.0938 -0.25894,-0.10619 -0.25329,-0.11818 c -0.33373,-0.1658 -0.65088,-0.36265 -0.9465,-0.58808 -0.29563,-0.22472 -0.56903,-0.47766 -0.81598,-0.75353 -0.12347,-0.13794 -0.24024,-0.28152 -0.34995,-0.43039 -0.11113,-0.14958 -0.20885,-0.30092 -0.31045,-0.4632 l -0.019,-0.0307 -0.0138,-0.0243 c -0.01,-0.0162 -0.0187,-0.0325 -0.0265,-0.0494 -0.0166,-0.0335 -0.0307,-0.0681 -0.0427,-0.10301 -0.0243,-0.0702 -0.0399,-0.14323 -0.0459,-0.21696 -0.0123,-0.14746 0.0123,-0.29704 0.0723,-0.43074 0.0624,-0.13229 0.15063,-0.25329 0.26705,-0.33972 0.11536,-0.0861 0.25082,-0.14923 0.39335,-0.16863 0.14181,-0.0215 0.28786,-0.0109 0.42086,0.0395 l 0.0497,0.0183 c 0.0162,0.007 0.0318,0.0159 0.048,0.0236 l 0.024,0.0116 0.012,0.006 0.0159,0.009 0.0632,0.0353 0.25258,0.14075 1.01071,0.56339 c 0.16087,0.0896 0.36372,0.0321 0.45332,-0.12876 0.0896,-0.16052 0.0317,-0.36336 -0.12876,-0.45297 -0.004,-10e-4 -0.007,-0.004 -0.009,-0.005"
           style="fill:#000000;fill-opacity:1;fill-rule:nonzero;stroke:none;stroke-width:0.352778"
           id="path497863" />
        <path
           d="m 102.45594,237.86629 h 1.14759 4.59846 l -0.35067,3.41489 c -0.0772,0.63571 -0.32173,1.23966 -0.70837,1.75084 -0.6858,0.90593 -1.75684,1.43862 -2.89349,1.43862 h -0.64593 -1.14759 -0.64594 c -1.13665,0 -2.207331,-0.53269 -2.893481,-1.43862 -0.38629,-0.51118 -0.63077,-1.11513 -0.70838,-1.75084 l -0.3503,-3.41489 z"
           style="fill:#000000;fill-opacity:1;fill-rule:nonzero;stroke:none;stroke-width:0.352778"
           id="path497867" />
        <path
           d="m 108.66899,244.06488 v 0 c 0,0.80645 -0.65969,1.46614 -1.46614,1.46614 h -8.529821 c -0.80645,0 -1.46614,-0.65969 -1.46614,-1.46614 z"
           style="fill:#000000;fill-opacity:1;fill-rule:nonzero;stroke:none;stroke-width:0.352778"
           id="path497871" />
        <path
           d="m 119.64987,244.06488 v 0 c 0,0.80645 0.6597,1.46614 1.46579,1.46614 h 8.53017 c 0.8061,0 1.46579,-0.65969 1.46579,-1.46614 z"
           style="fill:#ffffff;fill-opacity:1;fill-rule:nonzero;stroke:none;stroke-width:0.352778"
           id="path497875" />
        <path
           d="m 115.85719,220.02724 h -0.20426 c 0,-0.67945 0.32597,-1.01953 0.64135,-1.34797 0.30057,-0.31291 0.58456,-0.60854 0.58456,-1.20614 0,-0.59796 -0.28399,-0.89359 -0.58491,-1.20686 -0.31503,-0.32843 -0.641,-0.66816 -0.641,-1.34761 0,-0.67945 0.32597,-1.01882 0.64135,-1.34726 0.30057,-0.31291 0.58456,-0.60854 0.58456,-1.20544 h 0.20426 c 0,0.6791 -0.32597,1.01847 -0.64171,1.34691 -0.30021,0.31291 -0.5842,0.60854 -0.5842,1.20579 0,0.59726 0.28399,0.89324 0.5842,1.20615 0.31574,0.32879 0.64171,0.66851 0.64171,1.34832 0,0.67945 -0.32597,1.01917 -0.64171,1.34796 -0.30021,0.31291 -0.5842,0.60854 -0.5842,1.20615"
           style="fill:#ffffff;fill-opacity:1;fill-rule:nonzero;stroke:none;stroke-width:0.352778"
           id="path497879" />
        <path
           d="m 119.39873,220.02724 h -0.20426 c 0,-1.06433 0.31856,-1.60338 0.62689,-2.12478 0.30797,-0.5207 0.59901,-1.01212 0.59901,-2.02036 0,-1.00824 -0.29104,-1.50001 -0.59901,-2.02071 -0.30833,-0.52106 -0.62689,-1.0601 -0.62689,-2.12443 0,-1.06398 0.31856,-1.60267 0.62689,-2.12408 0.30797,-0.52034 0.59901,-1.01211 0.59901,-2.02035 h 0.20426 c 0,1.06433 -0.31891,1.60302 -0.62724,2.12442 -0.30797,0.52035 -0.59866,1.01212 -0.59866,2.02001 0,1.00824 0.29069,1.50001 0.59866,2.02071 0.30833,0.52105 0.62724,1.0601 0.62724,2.12443 0,1.06433 -0.31891,1.60302 -0.62724,2.12443 -0.30797,0.5207 -0.59866,1.01247 -0.59866,2.02071"
           style="fill:#ffffff;fill-opacity:1;fill-rule:nonzero;stroke:none;stroke-width:0.352778"
           id="path497883" />
        <path
           d="m 122.80388,220.02724 h -0.20426 c 0,-0.67945 0.32597,-1.01953 0.64135,-1.34797 0.30057,-0.31291 0.58455,-0.60854 0.58455,-1.20614 0,-0.59796 -0.28398,-0.89359 -0.5849,-1.20686 -0.31503,-0.32843 -0.641,-0.66816 -0.641,-1.34761 0,-0.67945 0.32597,-1.01882 0.64135,-1.34726 0.30057,-0.31291 0.58455,-0.60854 0.58455,-1.20544 h 0.20426 c 0,0.6791 -0.32596,1.01847 -0.6417,1.34691 -0.30021,0.31291 -0.5842,0.60854 -0.5842,1.20579 0,0.59726 0.28399,0.89324 0.5842,1.20615 0.31574,0.32879 0.6417,0.66851 0.6417,1.34832 0,0.67945 -0.32596,1.01917 -0.6417,1.34796 -0.30021,0.31291 -0.5842,0.60854 -0.5842,1.20615"
           style="fill:#ffffff;fill-opacity:1;fill-rule:nonzero;stroke:none;stroke-width:0.352778"
           id="path497887" />
        <path
           d="m 78.198309,199.34049 -0.16475,-0.121 c 1.04105,-1.41958 3.03001,-0.77682 3.04976,-0.77047 l -0.0642,0.19403 c -0.0187,-0.006 -1.86831,-0.60149 -2.82081,0.69744"
           style="fill:#000000;fill-opacity:1;fill-rule:nonzero;stroke:none;stroke-width:0.352778"
           id="path497891" />
        <path
           d="m 78.286179,202.34168 -0.15663,-0.13088 c 0.0529,-0.0639 1.31586,-1.55646 2.49308,-1.36596 0.54963,0.0892 0.98284,0.52705 1.28799,1.3021 l -0.19015,0.0751 c -0.27657,-0.70343 -0.65722,-1.0989 -1.13065,-1.17545 -1.06362,-0.17145 -2.29129,1.28023 -2.30364,1.29505"
           style="fill:#000000;fill-opacity:1;fill-rule:nonzero;stroke:none;stroke-width:0.352778"
           id="path497895" />
        <path
           d="m 80.011649,200.99205 c 0,0 -0.27516,1.80376 1.71239,1.00895 0,0 -0.24483,-1.34514 -1.71239,-1.00895"
           style="fill:#000000;fill-opacity:1;fill-rule:nonzero;stroke:none;stroke-width:0.352778"
           id="path497899" />
        <path
           d="m 147.79219,203.72834 c -0.012,-0.0148 -1.24037,-1.46579 -2.30399,-1.29505 -0.47343,0.0769 -0.85337,0.47202 -1.1303,1.17546 l -0.1898,-0.0751 c 0.30515,-0.77506 0.73801,-1.21285 1.28764,-1.30211 1.17793,-0.18838 2.44016,1.30211 2.49308,1.36596 z"
           style="fill:#000000;fill-opacity:1;fill-rule:nonzero;stroke:none;stroke-width:0.352778"
           id="path497903" />
        <path
           d="m 146.06686,202.37872 c 0,0 0.27516,1.80375 -1.71239,1.00894 0,0 0.24483,-1.34549 1.71239,-1.00894"
           style="fill:#000000;fill-opacity:1;fill-rule:nonzero;stroke:none;stroke-width:0.352778"
           id="path497907" />
        <path
           d="m 168.0259,197.18558 c 0,3.06176 -2.48215,5.5439 -5.5439,5.5439 -3.06212,0 -5.54391,-2.48214 -5.54391,-5.5439 0,-3.06176 2.48179,-5.5439 5.54391,-5.5439 3.06175,0 5.5439,2.48214 5.5439,5.5439"
           style="fill:#000000;fill-opacity:1;fill-rule:nonzero;stroke:none;stroke-width:0.352778"
           id="path497911" />
        <path
           d="m 154.44293,204.07473 -0.17215,-0.10936 c 1.55963,-2.45957 3.28718,-1.51024 3.30482,-1.50072 l -0.10125,0.17745 c -0.0639,-0.036 -1.58009,-0.85584 -3.03142,1.43263"
           style="fill:#000000;fill-opacity:1;fill-rule:nonzero;stroke:none;stroke-width:0.352778"
           id="path497915" />
        <path
           d="m 156.41023,203.41814 h -1.4665 v -0.20426 h 1.4665 z"
           style="fill:#000000;fill-opacity:1;fill-rule:nonzero;stroke:none;stroke-width:0.352778"
           id="path497917" />
        <path
           d="m 147.01978,199.46622 c -1.23507,-0.95426 -2.36043,-0.63112 -2.37208,-0.6283 l -0.0586,-0.19544 c 0.0497,-0.0148 1.23896,-0.3556 2.55552,0.66217 z"
           style="fill:#000000;fill-opacity:1;fill-rule:nonzero;stroke:none;stroke-width:0.352778"
           id="path497921" />
      </g>
      <g
         id="g674664"
         transform="translate(-14.931129,25.09928)">
        <path
           d="m 207.66458,335.50597 h 15.06079 c 4.19453,-2.07433 6.99841,-5.82648 6.99841,-10.11379 0,-1.75436 -0.47273,-3.41735 -1.3141,-4.9149 h -26.4287 c -0.84173,1.49755 -1.31445,3.16054 -1.31445,4.9149 0,4.28731 2.80352,8.03946 6.99805,10.11379"
           style="fill:#6f99ff;fill-opacity:1;fill-rule:nonzero;stroke:none;stroke-width:0.352778"
           id="path497553" />
        <path
           d="m 229.5368,323.50186 c -0.21096,-1.06186 -0.59478,-2.0768 -1.12712,-3.02436 h -26.4287 c -0.53305,0.94756 -0.91687,1.9625 -1.12783,3.02436 z"
           style="fill:#000000;fill-opacity:1;fill-rule:nonzero;stroke:none;stroke-width:0.352778"
           id="path497557" />
        <path
           d="m 202.61062,295.74058 c 0,0 0.5401,18.57974 7.45349,24.73677 h 5.40102 c 0,0 -0.5401,-15.44708 -12.85451,-24.73677"
           style="fill:#fe80a5;fill-opacity:1;fill-rule:nonzero;stroke:none;stroke-width:0.352778"
           id="path497561" />
        <path
           d="m 212.66962,320.62347 -8.9655,-22.36011 0.1898,-0.0765 8.96549,22.36046 z"
           style="fill:#000000;fill-opacity:1;fill-rule:nonzero;stroke:none;stroke-width:0.352778"
           id="path497565" />
        <path
           d="m 195.37349,307.29888 c 0,0 11.4501,1.83621 15.55467,13.28632 h -3.45651 c 0,0 -7.12929,-3.34857 -12.09816,-13.28632"
           style="fill:#ffca64;fill-opacity:1;fill-rule:nonzero;stroke:none;stroke-width:0.352778"
           id="path497569" />
        <path
           d="m 208.90996,320.43985 -10.91001,-11.4501 0.14782,-0.14076 10.91035,11.45011 z"
           style="fill:#000000;fill-opacity:1;fill-rule:nonzero;stroke:none;stroke-width:0.352778"
           id="path497573" />
        <path
           d="m 214.38493,320.58523 c 0,0 -5.50898,-13.17836 5.50898,-26.89683 0,0 4.96887,15.23083 -1.62031,26.89683 0,0 -3.78037,-0.10795 -3.88867,0"
           style="fill:#ffca64;fill-opacity:1;fill-rule:nonzero;stroke:none;stroke-width:0.352778"
           id="path497577" />
        <path
           d="m 216.53878,320.5973 -0.20285,-0.0236 2.80846,-24.08872 0.20285,0.0236 z"
           style="fill:#000000;fill-opacity:1;fill-rule:nonzero;stroke:none;stroke-width:0.352778"
           id="path497581" />
        <path
           d="m 232.64047,307.62308 c 0,0 -10.04605,0.32385 -15.44708,12.85452 h 5.18478 c 0,0 7.88599,-3.56482 10.2623,-12.85452"
           style="fill:#fe80a5;fill-opacity:1;fill-rule:nonzero;stroke:none;stroke-width:0.352778"
           id="path497585" />
        <path
           d="m 220.40212,320.54562 -0.1524,-0.13653 10.37025,-11.55806 0.15205,0.13618 z"
           style="fill:#000000;fill-opacity:1;fill-rule:nonzero;stroke:none;stroke-width:0.352778"
           id="path497589" />
      </g>
      <g
         id="g674676"
         transform="translate(9.7909243,19.910191)">
        <path
           d="m 32.435404,343.96978 h 15.060434 c 4.19488,-2.07433 6.99841,-5.82648 6.99841,-10.11379 0,-1.75436 -0.47272,-3.41735 -1.3141,-4.9149 H 26.751449 c -0.841728,1.49755 -1.31445,3.16054 -1.31445,4.9149 0,4.28731 2.803877,8.03946 6.998405,10.11379"
           style="fill:#6f99ff;fill-opacity:1;fill-rule:nonzero;stroke:none;stroke-width:0.352778"
           id="path497513" />
        <path
           d="m 54.307278,331.96567 c -0.21061,-1.06186 -0.59444,-2.0768 -1.12713,-3.02436 H 26.751449 c -0.533047,0.94756 -0.916517,1.9625 -1.127478,3.02436 z"
           style="fill:#000000;fill-opacity:1;fill-rule:nonzero;stroke:none;stroke-width:0.352778"
           id="path497517" />
        <path
           d="m 27.381263,304.20439 c 0,0 0.540103,18.57974 7.453489,24.73677 h 5.401026 c 0,0 -0.5401,-15.44708 -12.854515,-24.73677"
           style="fill:#fe80a5;fill-opacity:1;fill-rule:nonzero;stroke:none;stroke-width:0.352778"
           id="path497521" />
        <path
           d="m 37.440439,329.08728 -8.965847,-22.36011 0.189794,-0.0765 8.965847,22.36046 z"
           style="fill:#000000;fill-opacity:1;fill-rule:nonzero;stroke:none;stroke-width:0.352778"
           id="path497525" />
        <path
           d="m 20.143992,315.76269 c 0,0 11.450108,1.83621 15.55503,13.28632 h -3.456869 c 0,0 -7.129286,-3.34857 -12.098161,-13.28632"
           style="fill:#ffca64;fill-opacity:1;fill-rule:nonzero;stroke:none;stroke-width:0.352778"
           id="path497529" />
        <path
           d="m 33.680639,328.90366 -10.910005,-11.4501 0.147814,-0.14076 10.910005,11.45011 z"
           style="fill:#000000;fill-opacity:1;fill-rule:nonzero;stroke:none;stroke-width:0.352778"
           id="path497533" />
        <path
           d="m 39.155578,329.04904 c 0,0 -5.508982,-13.17836 5.50897,-26.89683 0,0 4.96888,15.23083 -1.6203,26.89683 0,0 -3.78072,-0.10795 -3.88867,0"
           style="fill:#ffca64;fill-opacity:1;fill-rule:nonzero;stroke:none;stroke-width:0.352778"
           id="path497537" />
        <path
           d="m 41.309278,329.06111 -0.20284,-0.0236 2.80846,-24.08872 0.20285,0.0236 z"
           style="fill:#000000;fill-opacity:1;fill-rule:nonzero;stroke:none;stroke-width:0.352778"
           id="path497541" />
        <path
           d="m 57.410938,316.08689 c 0,0 -10.04605,0.32385 -15.44708,12.85452 h 5.18513 c 0,0 7.88564,-3.56482 10.26195,-12.85452"
           style="fill:#fe80a5;fill-opacity:1;fill-rule:nonzero;stroke:none;stroke-width:0.352778"
           id="path497545" />
        <path
           d="m 45.172588,329.00943 -0.15205,-0.13653 10.3699,-11.55806 0.1524,0.13618 z"
           style="fill:#000000;fill-opacity:1;fill-rule:nonzero;stroke:none;stroke-width:0.352778"
           id="path497549" />
      </g>
    </g>
  </g>
</svg>
